<?xml version="1.0" encoding="UTF-8" standalone="no"?>
<svg width="241.3mm" height="152.4mm"
 viewBox="0 0 684 432"
 xmlns="http://www.w3.org/2000/svg" xmlns:xlink="http://www.w3.org/1999/xlink"  version="1.2" baseProfile="tiny">
<title>Qt SVG Document</title>
<desc>MATLAB, The MathWorks, Inc. Version 25.2.0.3150157 R2025b Update 4</desc>
<defs>
</defs>
<g fill="none" stroke="black" stroke-width="1" fill-rule="evenodd" stroke-linecap="square" stroke-linejoin="bevel" >

<g fill="#000000" fill-opacity="1" stroke="none" transform="matrix(0.75,0,0,0.75,-57.5,-26.9325)"
font-family="MS Shell Dlg 2" font-size="8.25" font-weight="400" font-style="normal" 
>
<path vector-effect="none" fill-rule="evenodd" d="M75,34 L988,34 L988,611 L75,611 L75,34"/>
</g>

<g fill="#000000" fill-opacity="1" stroke="none" transform="matrix(7.5e-05,0,0,7.5e-05,-57.5,-26.9325)"
font-family="MS Shell Dlg 2" font-size="8.25" font-weight="400" font-style="normal" 
>
<path vector-effect="none" fill-rule="evenodd" d="M1.21e+06,536600 L1.21e+06,5.7134e+06 L8.4e+06,5.7134e+06 L8.4e+06,536600 L1.21e+06,536600"/>
</g>

<g fill="#ffffff" fill-opacity="0.25098" stroke="#ffffff" stroke-opacity="0.25098" stroke-width="0.666667" stroke-linecap="butt" stroke-linejoin="round" transform="matrix(0.75,0,0,0.75,-57.5,-26.9325)"
font-family="MS Shell Dlg 2" font-size="8.25" font-weight="400" font-style="normal" 
>
<polyline fill="none" vector-effect="none" points="145.063,53.66 145.063,571.34 " />
<polyline fill="none" vector-effect="none" points="216.963,53.66 216.963,571.34 " />
<polyline fill="none" vector-effect="none" points="288.863,53.66 288.863,571.34 " />
<polyline fill="none" vector-effect="none" points="360.763,53.66 360.763,571.34 " />
<polyline fill="none" vector-effect="none" points="432.663,53.66 432.663,571.34 " />
<polyline fill="none" vector-effect="none" points="504.563,53.66 504.563,571.34 " />
<polyline fill="none" vector-effect="none" points="576.463,53.66 576.463,571.34 " />
<polyline fill="none" vector-effect="none" points="648.363,53.66 648.363,571.34 " />
<polyline fill="none" vector-effect="none" points="720.263,53.66 720.263,571.34 " />
<polyline fill="none" vector-effect="none" points="792.163,53.66 792.163,571.34 " />
<polyline fill="none" vector-effect="none" points="121,571.156 840,571.156 " />
<polyline fill="none" vector-effect="none" points="121,499.256 840,499.256 " />
<polyline fill="none" vector-effect="none" points="121,427.356 840,427.356 " />
<polyline fill="none" vector-effect="none" points="121,355.456 840,355.456 " />
<polyline fill="none" vector-effect="none" points="121,283.556 840,283.556 " />
<polyline fill="none" vector-effect="none" points="121,211.656 840,211.656 " />
<polyline fill="none" vector-effect="none" points="121,139.756 840,139.756 " />
<polyline fill="none" vector-effect="none" points="121,67.8559 840,67.8559 " />
</g>

<g fill="#ffffff" fill-opacity="1" stroke="#ffffff" stroke-opacity="1" stroke-width="1" stroke-linecap="square" stroke-linejoin="bevel" transform="matrix(0.75,0,0,0.75,289.75,427.572)"
font-family="Helvetica" font-size="14" font-weight="400" font-style="normal" 
>
<text fill="#ffffff" fill-opacity="1" stroke="none" xml:space="preserve" x="0" y="0" font-family="Helvetica" font-size="14" font-weight="400" font-style="normal" 
 >X (m)</text>
</g>

<g fill="#ffffff" fill-opacity="1" stroke="#ffffff" stroke-opacity="1" stroke-width="0.666667" stroke-linecap="square" stroke-linejoin="round" transform="matrix(0.75,0,0,0.75,-57.5,-26.9325)"
font-family="Helvetica" font-size="14" font-weight="400" font-style="normal" 
>
<polyline fill="none" vector-effect="none" points="121,571.34 840,571.34 " />
<polyline fill="none" vector-effect="none" points="145.063,571.34 145.063,564.15 " />
<polyline fill="none" vector-effect="none" points="216.963,571.34 216.963,564.15 " />
<polyline fill="none" vector-effect="none" points="288.863,571.34 288.863,564.15 " />
<polyline fill="none" vector-effect="none" points="360.763,571.34 360.763,564.15 " />
<polyline fill="none" vector-effect="none" points="432.663,571.34 432.663,564.15 " />
<polyline fill="none" vector-effect="none" points="504.563,571.34 504.563,564.15 " />
<polyline fill="none" vector-effect="none" points="576.463,571.34 576.463,564.15 " />
<polyline fill="none" vector-effect="none" points="648.363,571.34 648.363,564.15 " />
<polyline fill="none" vector-effect="none" points="720.263,571.34 720.263,564.15 " />
<polyline fill="none" vector-effect="none" points="792.163,571.34 792.163,564.15 " />
</g>

<g fill="#ffffff" fill-opacity="1" stroke="#ffffff" stroke-opacity="1" stroke-width="1" stroke-linecap="square" stroke-linejoin="bevel" transform="matrix(0.75,0,0,0.75,46.0471,414.573)"
font-family="Helvetica" font-size="13" font-weight="400" font-style="normal" 
>
<text fill="#ffffff" fill-opacity="1" stroke="none" xml:space="preserve" x="0" y="0" font-family="Helvetica" font-size="13" font-weight="400" font-style="normal" 
 >40</text>
</g>

<g fill="#ffffff" fill-opacity="1" stroke="#ffffff" stroke-opacity="1" stroke-width="1" stroke-linecap="square" stroke-linejoin="bevel" transform="matrix(0.75,0,0,0.75,99.9721,414.573)"
font-family="Helvetica" font-size="13" font-weight="400" font-style="normal" 
>
<text fill="#ffffff" fill-opacity="1" stroke="none" xml:space="preserve" x="0" y="0" font-family="Helvetica" font-size="13" font-weight="400" font-style="normal" 
 >45</text>
</g>

<g fill="#ffffff" fill-opacity="1" stroke="#ffffff" stroke-opacity="1" stroke-width="1" stroke-linecap="square" stroke-linejoin="bevel" transform="matrix(0.75,0,0,0.75,153.897,414.573)"
font-family="Helvetica" font-size="13" font-weight="400" font-style="normal" 
>
<text fill="#ffffff" fill-opacity="1" stroke="none" xml:space="preserve" x="0" y="0" font-family="Helvetica" font-size="13" font-weight="400" font-style="normal" 
 >50</text>
</g>

<g fill="#ffffff" fill-opacity="1" stroke="#ffffff" stroke-opacity="1" stroke-width="1" stroke-linecap="square" stroke-linejoin="bevel" transform="matrix(0.75,0,0,0.75,207.822,414.573)"
font-family="Helvetica" font-size="13" font-weight="400" font-style="normal" 
>
<text fill="#ffffff" fill-opacity="1" stroke="none" xml:space="preserve" x="0" y="0" font-family="Helvetica" font-size="13" font-weight="400" font-style="normal" 
 >55</text>
</g>

<g fill="#ffffff" fill-opacity="1" stroke="#ffffff" stroke-opacity="1" stroke-width="1" stroke-linecap="square" stroke-linejoin="bevel" transform="matrix(0.75,0,0,0.75,261.747,414.573)"
font-family="Helvetica" font-size="13" font-weight="400" font-style="normal" 
>
<text fill="#ffffff" fill-opacity="1" stroke="none" xml:space="preserve" x="0" y="0" font-family="Helvetica" font-size="13" font-weight="400" font-style="normal" 
 >60</text>
</g>

<g fill="#ffffff" fill-opacity="1" stroke="#ffffff" stroke-opacity="1" stroke-width="1" stroke-linecap="square" stroke-linejoin="bevel" transform="matrix(0.75,0,0,0.75,315.672,414.573)"
font-family="Helvetica" font-size="13" font-weight="400" font-style="normal" 
>
<text fill="#ffffff" fill-opacity="1" stroke="none" xml:space="preserve" x="0" y="0" font-family="Helvetica" font-size="13" font-weight="400" font-style="normal" 
 >65</text>
</g>

<g fill="#ffffff" fill-opacity="1" stroke="#ffffff" stroke-opacity="1" stroke-width="1" stroke-linecap="square" stroke-linejoin="bevel" transform="matrix(0.75,0,0,0.75,369.597,414.573)"
font-family="Helvetica" font-size="13" font-weight="400" font-style="normal" 
>
<text fill="#ffffff" fill-opacity="1" stroke="none" xml:space="preserve" x="0" y="0" font-family="Helvetica" font-size="13" font-weight="400" font-style="normal" 
 >70</text>
</g>

<g fill="#ffffff" fill-opacity="1" stroke="#ffffff" stroke-opacity="1" stroke-width="1" stroke-linecap="square" stroke-linejoin="bevel" transform="matrix(0.75,0,0,0.75,423.522,414.573)"
font-family="Helvetica" font-size="13" font-weight="400" font-style="normal" 
>
<text fill="#ffffff" fill-opacity="1" stroke="none" xml:space="preserve" x="0" y="0" font-family="Helvetica" font-size="13" font-weight="400" font-style="normal" 
 >75</text>
</g>

<g fill="#ffffff" fill-opacity="1" stroke="#ffffff" stroke-opacity="1" stroke-width="1" stroke-linecap="square" stroke-linejoin="bevel" transform="matrix(0.75,0,0,0.75,477.447,414.573)"
font-family="Helvetica" font-size="13" font-weight="400" font-style="normal" 
>
<text fill="#ffffff" fill-opacity="1" stroke="none" xml:space="preserve" x="0" y="0" font-family="Helvetica" font-size="13" font-weight="400" font-style="normal" 
 >80</text>
</g>

<g fill="#ffffff" fill-opacity="1" stroke="#ffffff" stroke-opacity="1" stroke-width="1" stroke-linecap="square" stroke-linejoin="bevel" transform="matrix(0.75,0,0,0.75,531.372,414.573)"
font-family="Helvetica" font-size="13" font-weight="400" font-style="normal" 
>
<text fill="#ffffff" fill-opacity="1" stroke="none" xml:space="preserve" x="0" y="0" font-family="Helvetica" font-size="13" font-weight="400" font-style="normal" 
 >85</text>
</g>

<g fill="#ffffff" fill-opacity="1" stroke="#ffffff" stroke-opacity="1" stroke-width="1" stroke-linecap="square" stroke-linejoin="bevel" transform="matrix(0,-0.75,0.75,0,9,220.568)"
font-family="Helvetica" font-size="14" font-weight="400" font-style="normal" 
>
<text fill="#ffffff" fill-opacity="1" stroke="none" xml:space="preserve" x="0" y="0" font-family="Helvetica" font-size="14" font-weight="400" font-style="normal" 
 >Y (m)</text>
</g>

<g fill="#ffffff" fill-opacity="1" stroke="#ffffff" stroke-opacity="1" stroke-width="0.666667" stroke-linecap="square" stroke-linejoin="round" transform="matrix(0.75,0,0,0.75,-57.5,-26.9325)"
font-family="Helvetica" font-size="14" font-weight="400" font-style="normal" 
>
<polyline fill="none" vector-effect="none" points="121,571.34 121,53.66 " />
<polyline fill="none" vector-effect="none" points="121,571.156 128.19,571.156 " />
<polyline fill="none" vector-effect="none" points="121,499.256 128.19,499.256 " />
<polyline fill="none" vector-effect="none" points="121,427.356 128.19,427.356 " />
<polyline fill="none" vector-effect="none" points="121,355.456 128.19,355.456 " />
<polyline fill="none" vector-effect="none" points="121,283.556 128.19,283.556 " />
<polyline fill="none" vector-effect="none" points="121,211.656 128.19,211.656 " />
<polyline fill="none" vector-effect="none" points="121,139.756 128.19,139.756 " />
<polyline fill="none" vector-effect="none" points="121,67.8559 128.19,67.8559 " />
</g>

<g fill="#ffffff" fill-opacity="1" stroke="#ffffff" stroke-opacity="1" stroke-width="1" stroke-linecap="square" stroke-linejoin="bevel" transform="matrix(0.75,0,0,0.75,15.75,404.809)"
font-family="Helvetica" font-size="13" font-weight="400" font-style="normal" 
>
<text fill="#ffffff" fill-opacity="1" stroke="none" xml:space="preserve" x="0" y="0" font-family="Helvetica" font-size="13" font-weight="400" font-style="normal" 
 >-10</text>
</g>

<g fill="#ffffff" fill-opacity="1" stroke="#ffffff" stroke-opacity="1" stroke-width="1" stroke-linecap="square" stroke-linejoin="bevel" transform="matrix(0.75,0,0,0.75,21,350.884)"
font-family="Helvetica" font-size="13" font-weight="400" font-style="normal" 
>
<text fill="#ffffff" fill-opacity="1" stroke="none" xml:space="preserve" x="0" y="0" font-family="Helvetica" font-size="13" font-weight="400" font-style="normal" 
 >-5</text>
</g>

<g fill="#ffffff" fill-opacity="1" stroke="#ffffff" stroke-opacity="1" stroke-width="1" stroke-linecap="square" stroke-linejoin="bevel" transform="matrix(0.75,0,0,0.75,24,296.959)"
font-family="Helvetica" font-size="13" font-weight="400" font-style="normal" 
>
<text fill="#ffffff" fill-opacity="1" stroke="none" xml:space="preserve" x="0" y="0" font-family="Helvetica" font-size="13" font-weight="400" font-style="normal" 
 >0</text>
</g>

<g fill="#ffffff" fill-opacity="1" stroke="#ffffff" stroke-opacity="1" stroke-width="1" stroke-linecap="square" stroke-linejoin="bevel" transform="matrix(0.75,0,0,0.75,24,243.034)"
font-family="Helvetica" font-size="13" font-weight="400" font-style="normal" 
>
<text fill="#ffffff" fill-opacity="1" stroke="none" xml:space="preserve" x="0" y="0" font-family="Helvetica" font-size="13" font-weight="400" font-style="normal" 
 >5</text>
</g>

<g fill="#ffffff" fill-opacity="1" stroke="#ffffff" stroke-opacity="1" stroke-width="1" stroke-linecap="square" stroke-linejoin="bevel" transform="matrix(0.75,0,0,0.75,18.75,189.109)"
font-family="Helvetica" font-size="13" font-weight="400" font-style="normal" 
>
<text fill="#ffffff" fill-opacity="1" stroke="none" xml:space="preserve" x="0" y="0" font-family="Helvetica" font-size="13" font-weight="400" font-style="normal" 
 >10</text>
</g>

<g fill="#ffffff" fill-opacity="1" stroke="#ffffff" stroke-opacity="1" stroke-width="1" stroke-linecap="square" stroke-linejoin="bevel" transform="matrix(0.75,0,0,0.75,18.75,135.184)"
font-family="Helvetica" font-size="13" font-weight="400" font-style="normal" 
>
<text fill="#ffffff" fill-opacity="1" stroke="none" xml:space="preserve" x="0" y="0" font-family="Helvetica" font-size="13" font-weight="400" font-style="normal" 
 >15</text>
</g>

<g fill="#ffffff" fill-opacity="1" stroke="#ffffff" stroke-opacity="1" stroke-width="1" stroke-linecap="square" stroke-linejoin="bevel" transform="matrix(0.75,0,0,0.75,18.75,81.2594)"
font-family="Helvetica" font-size="13" font-weight="400" font-style="normal" 
>
<text fill="#ffffff" fill-opacity="1" stroke="none" xml:space="preserve" x="0" y="0" font-family="Helvetica" font-size="13" font-weight="400" font-style="normal" 
 >20</text>
</g>

<g fill="#ffffff" fill-opacity="1" stroke="#ffffff" stroke-opacity="1" stroke-width="1" stroke-linecap="square" stroke-linejoin="bevel" transform="matrix(0.75,0,0,0.75,18.75,27.3344)"
font-family="Helvetica" font-size="13" font-weight="400" font-style="normal" 
>
<text fill="#ffffff" fill-opacity="1" stroke="none" xml:space="preserve" x="0" y="0" font-family="Helvetica" font-size="13" font-weight="400" font-style="normal" 
 >25</text>
</g>

<g fill="#ffffff" fill-opacity="1" stroke="#ffffff" stroke-opacity="1" stroke-width="1" stroke-linecap="square" stroke-linejoin="bevel" transform="matrix(0.75,0,0,0.75,163,9)"
font-family="Helvetica" font-size="14" font-weight="700" font-style="normal" 
>
<text fill="#ffffff" fill-opacity="1" stroke="none" xml:space="preserve" x="0" y="0" font-family="Helvetica" font-size="14" font-weight="700" font-style="normal" 
 >Simple Animation: Vehicle and Path Tracking | k = 7981</text>
</g>

<g fill="none" stroke="#a6a6a6" stroke-opacity="1" stroke-dasharray="10,6" stroke-dashoffset="0" stroke-width="1.86667" stroke-linecap="butt" stroke-linejoin="round" transform="matrix(0.75,0,0,0.75,-57.5,-26.9325)"
font-family="Helvetica" font-size="14" font-weight="700" font-style="normal" 
>
<polyline fill="none" vector-effect="none" points="121,381.695 121.045,381.673 121.477,381.466 121.908,381.259 122.34,381.052 122.771,380.844 123.202,380.636 123.634,380.428 124.065,380.22 124.497,380.011 124.928,379.802 125.36,379.592 125.791,379.383 126.223,379.173 126.654,378.962 127.086,378.752 127.517,378.541 127.949,378.331 128.38,378.119 128.811,377.908 129.243,377.696 129.674,377.485 130.106,377.273 130.537,377.06 130.969,376.848 131.4,376.635 131.832,376.423 132.263,376.21 132.694,375.996 133.126,375.783 133.557,375.57 133.989,375.356 134.42,375.142 134.852,374.928 135.283,374.714 135.715,374.5 136.146,374.285 136.578,374.071 137.009,373.856 137.44,373.642 137.872,373.427 138.303,373.212 138.735,372.997 139.166,372.782 139.598,372.566 140.029,372.351 140.461,372.136 140.892,371.92 141.324,371.705 141.755,371.489 142.186,371.274 142.618,371.058 143.049,370.843 143.481,370.627 143.912,370.411 144.344,370.195 144.775,369.98 145.207,369.764 145.638,369.548 146.07,369.333 146.501,369.117 146.932,368.901 147.364,368.686 147.795,368.47 148.227,368.254 148.658,368.039 149.09,367.823 149.521,367.608 149.953,367.392 150.384,367.177 150.816,366.962 151.247,366.747 151.678,366.532 152.11,366.317 152.541,366.102 152.973,365.887 153.404,365.672 153.836,365.458 154.267,365.244 154.699,365.029 155.13,364.815 155.562,364.601 155.993,364.387 156.424,364.173 156.856,363.96 157.287,363.747 157.719,363.533 158.15,363.32 158.582,363.107 159.013,362.895 159.445,362.682 159.876,362.47 160.308,362.258 160.739,362.046 161.17,361.834 161.602,361.623 162.033,361.412 162.465,361.201 162.896,360.99 163.328,360.779 163.759,360.569 164.191,360.359 164.622,360.149 165.054,359.94 165.485,359.731 165.916,359.522 166.348,359.313 166.779,359.105 167.211,358.897 167.642,358.689 168.074,358.482 168.505,358.274 168.937,358.067 169.368,357.861 169.8,357.655 170.231,357.449 170.662,357.243 171.094,357.038 171.525,356.833 171.957,356.629 172.388,356.424 172.82,356.221 173.251,356.017 173.683,355.814 174.114,355.611 174.546,355.409 174.977,355.207 175.408,355.005 175.84,354.804 176.271,354.604 176.703,354.403 177.134,354.203 177.566,354.004 177.997,353.804 178.429,353.606 178.86,353.407 179.292,353.209 179.723,353.012 180.154,352.815 180.586,352.618 181.017,352.422 181.449,352.226 181.88,352.031 182.312,351.836 182.743,351.642 183.175,351.448 183.606,351.254 184.038,351.061 184.469,350.869 184.9,350.677 185.332,350.485 185.763,350.294 186.195,350.104 186.626,349.914 187.058,349.724 187.489,349.535 187.921,349.346 188.352,349.158 188.783,348.971 189.215,348.784 189.646,348.597 190.078,348.411 190.509,348.225 190.941,348.04 191.372,347.856 191.804,347.672 192.235,347.488 192.667,347.306 193.098,347.123 193.53,346.941 193.961,346.76 194.392,346.579 194.824,346.399 195.255,346.22 195.687,346.04 196.118,345.862 196.55,345.684 196.981,345.507 197.413,345.33 197.844,345.153 198.275,344.978 198.707,344.803 199.138,344.628 199.57,344.454 200.001,344.281 200.433,344.108 200.864,343.935 201.296,343.764 201.727,343.593 202.159,343.422 202.59,343.252 203.021,343.083 203.453,342.914 203.884,342.746 204.316,342.578 204.747,342.411 205.179,342.245 205.61,342.079 206.042,341.914 206.473,341.749 206.905,341.585 207.336,341.422 207.767,341.259 208.199,341.097 208.63,340.935 209.062,340.774 209.493,340.614 209.925,340.454 210.356,340.295 210.788,340.137 211.219,339.979 211.651,339.821 212.082,339.665 212.513,339.509 212.945,339.353 213.376,339.198 213.808,339.044 214.239,338.891 214.671,338.738 215.102,338.585 215.534,338.434 215.965,338.282 216.397,338.132 216.828,337.982 217.259,337.833 217.691,337.684 218.122,337.536 218.554,337.389 218.985,337.242 219.417,337.096 219.848,336.95 220.28,336.805 220.711,336.661 221.143,336.517 221.574,336.374 222.005,336.232 222.437,336.09 222.868,335.949 223.3,335.809 223.731,335.669 224.163,335.529 224.594,335.391 225.026,335.253 225.457,335.115 225.889,334.978 226.32,334.842 226.751,334.707 227.183,334.572 227.614,334.437 228.046,334.304 228.477,334.17 228.909,334.038 229.34,333.906 229.772,333.775 230.203,333.644 230.635,333.514 231.066,333.385 231.497,333.256 231.929,333.128 232.36,333 232.792,332.873 233.223,332.747 233.655,332.621 234.086,332.496 234.518,332.372 234.949,332.248 235.381,332.124 235.812,332.002 236.243,331.88 236.675,331.758 237.106,331.637 237.538,331.517 237.969,331.397 238.401,331.278 238.832,331.16 239.264,331.042 239.695,330.925 240.126,330.808 240.558,330.692 240.989,330.576 241.421,330.461 241.852,330.347 242.284,330.233 242.715,330.12 243.147,330.007 243.578,329.895 244.01,329.784 244.441,329.673 244.873,329.563 245.304,329.453 245.735,329.344 246.167,329.236 246.598,329.128 247.03,329.02 247.461,328.913 247.893,328.807 248.324,328.701 248.756,328.596 249.187,328.492 249.618,328.388 250.05,328.284 250.481,328.181 250.913,328.079 251.344,327.977 251.776,327.876 252.207,327.776 252.639,327.675 253.07,327.576 253.502,327.477 253.933,327.378 254.364,327.28 254.796,327.183 255.227,327.086 255.659,326.99 256.09,326.894 256.522,326.799 256.953,326.704 257.385,326.61 257.816,326.517 258.248,326.423 258.679,326.331 259.111,326.239 259.542,326.147 259.973,326.056 260.405,325.966 260.836,325.876 261.268,325.786 261.699,325.697 262.131,325.609 262.562,325.521 262.994,325.434 263.425,325.347 263.856,325.26 264.288,325.174 264.719,325.089 265.151,325.004 265.582,324.919 266.014,324.836 266.445,324.752 266.877,324.669 267.308,324.587 267.74,324.505 268.171,324.423 268.602,324.342 269.034,324.262 269.465,324.182 269.897,324.102 270.328,324.023 270.76,323.944 271.191,323.866 271.623,323.788 272.054,323.711 272.486,323.634 272.917,323.558 273.348,323.482 273.78,323.407 274.211,323.332 274.643,323.257 275.074,323.183 275.506,323.11 275.937,323.037 276.369,322.964 276.8,322.892 277.232,322.82 277.663,322.748 278.094,322.677 278.526,322.607 278.957,322.537 279.389,322.467 279.82,322.398 280.252,322.329 280.683,322.261 281.115,322.193 281.546,322.125 281.978,322.058 282.409,321.992 282.84,321.925 283.272,321.86 283.703,321.794 284.135,321.729 284.566,321.664 284.998,321.6 285.429,321.536 285.861,321.473 286.292,321.41 286.724,321.347 287.155,321.285 287.586,321.223 288.018,321.162 288.449,321.101 288.881,321.04 289.312,320.98 289.744,320.92 290.175,320.86 290.607,320.801 291.038,320.742 291.47,320.684 291.901,320.626 292.332,320.568 292.764,320.511 293.195,320.454 293.627,320.398 294.058,320.342 294.49,320.286 294.921,320.23 295.353,320.175 295.784,320.12 296.216,320.066 296.647,320.012 297.078,319.958 297.51,319.905 297.941,319.852 298.373,319.799 298.804,319.747 299.236,319.695 299.667,319.643 300.099,319.592 300.53,319.541 300.962,319.491 301.393,319.44 301.824,319.39 302.256,319.341 302.687,319.291 303.119,319.242 303.55,319.194 303.982,319.145 304.413,319.097 304.845,319.05 305.276,319.002 305.708,318.955 306.139,318.908 306.57,318.862 307.002,318.816 307.433,318.77 307.865,318.724 308.296,318.679 308.728,318.634 309.159,318.589 309.591,318.545 310.022,318.501 310.454,318.457 310.885,318.414 311.316,318.371 311.748,318.328 312.179,318.285 312.611,318.243 313.042,318.201 313.474,318.159 313.905,318.118 314.337,318.077 314.768,318.036 315.199,317.995 315.631,317.955 316.062,317.915 316.494,317.875 316.925,317.835 317.357,317.796 317.788,317.757 318.22,317.718 318.651,317.68 319.083,317.641 319.514,317.603 319.946,317.566 320.377,317.528 320.808,317.491 321.24,317.454 321.671,317.417 322.103,317.381 322.534,317.345 322.966,317.309 323.397,317.273 323.829,317.238 324.26,317.202 324.691,317.167 325.123,317.133 325.554,317.098 325.986,317.064 326.417,317.03 326.849,316.996 327.28,316.963 327.712,316.929 328.143,316.896 328.575,316.863 329.006,316.831 329.437,316.798 329.869,316.766 330.3,316.734 330.732,316.702 331.163,316.671 331.595,316.639 332.026,316.608 332.458,316.577 332.889,316.547 333.321,316.516 333.752,316.486 334.184,316.456 334.615,316.426 335.046,316.397 335.478,316.367 335.909,316.338 336.341,316.309 336.772,316.28 337.204,316.251 337.635,316.223 338.067,316.195 338.498,316.167 338.929,316.139 339.361,316.111 339.792,316.084 340.224,316.057 340.655,316.03 341.087,316.003 341.518,315.976 341.95,315.95 342.381,315.923 342.813,315.897 343.244,315.871 343.675,315.846 344.107,315.82 344.538,315.795 344.97,315.769 345.401,315.744 345.833,315.719 346.264,315.695 346.696,315.67 347.127,315.646 347.559,315.622 347.99,315.598 348.421,315.574 348.853,315.55 349.284,315.527 349.716,315.503 350.147,315.48 350.579,315.457 351.01,315.434 351.442,315.412 351.873,315.389 352.305,315.367 352.736,315.345 353.167,315.323 353.599,315.301 354.03,315.279 354.462,315.257 354.893,315.236 355.325,315.215 355.756,315.194 356.188,315.173 356.619,315.152 357.051,315.131 357.482,315.111 357.913,315.09 358.345,315.07 358.776,315.05 359.208,315.03 359.639,315.01 360.071,314.99 360.502,314.971 360.934,314.952 361.365,314.932 361.797,314.913 362.228,314.894 362.659,314.875 363.091,314.857 363.522,314.838 363.954,314.82 364.385,314.801 364.817,314.783 365.248,314.765 365.68,314.747 366.111,314.729 366.543,314.712 366.974,314.694 367.405,314.677 367.837,314.66 368.268,314.642 368.7,314.625 369.131,314.608 369.563,314.592 369.994,314.575 370.426,314.558 370.857,314.542 371.289,314.526 371.72,314.509 372.151,314.493 372.583,314.477 373.014,314.462 373.446,314.446 373.877,314.43 374.309,314.415 374.74,314.399 375.172,314.384 375.603,314.369 376.035,314.354 376.466,314.339 376.897,314.324 377.329,314.309 377.76,314.295 378.192,314.28 378.623,314.266 379.055,314.251 379.486,314.237 379.918,314.223 380.349,314.209 380.78,314.195 381.212,314.181 381.643,314.167 382.075,314.154 382.506,314.14 382.938,314.127 383.369,314.114 383.801,314.1 384.232,314.087 384.664,314.074 385.095,314.061 385.527,314.048 385.958,314.036 386.389,314.023 386.821,314.01 387.252,313.998 387.684,313.986 388.115,313.973 388.547,313.961 388.978,313.949 389.41,313.937 389.841,313.925 390.272,313.913 390.704,313.901 391.135,313.89 391.567,313.878 391.998,313.867 392.43,313.855 392.861,313.844 393.293,313.833 393.724,313.821 394.156,313.81 394.587,313.799 395.018,313.788 395.45,313.777 395.881,313.767 396.313,313.756 396.744,313.745 397.176,313.735 397.607,313.724 398.039,313.714 398.47,313.704 398.902,313.693 399.333,313.683 399.764,313.673 400.196,313.663 400.627,313.653 401.059,313.643 401.49,313.633 401.922,313.624 402.353,313.614 402.785,313.604 403.216,313.595 403.648,313.585 404.079,313.576 404.51,313.567 404.942,313.557 405.373,313.548 405.805,313.539 406.236,313.53 406.668,313.521 407.099,313.512 407.531,313.503 407.962,313.495 408.394,313.486 408.825,313.477 409.256,313.469 409.688,313.46 410.119,313.452 410.551,313.443 410.982,313.435 411.414,313.427 411.845,313.418 412.277,313.41 412.708,313.402 413.14,313.394 413.571,313.386 414.002,313.378 414.434,313.37 414.865,313.363 415.297,313.355 415.728,313.347 416.16,313.339 416.591,313.332 417.023,313.324 417.454,313.317 417.886,313.309 418.317,313.302 418.748,313.295 419.18,313.288 419.611,313.28 420.043,313.273 420.474,313.266 420.906,313.259 421.337,313.252 421.769,313.245 422.2,313.238 422.632,313.231 423.063,313.225 423.494,313.218 423.926,313.211 424.357,313.205 424.789,313.198 425.22,313.191 425.652,313.185 426.083,313.178 426.515,313.172 426.946,313.166 427.378,313.159 427.809,313.153 428.24,313.147 428.672,313.141 429.103,313.135 429.535,313.129 429.966,313.123 430.398,313.117 430.829,313.111 431.261,313.105 431.692,313.099 432.124,313.093 432.555,313.087 432.986,313.082 433.418,313.076 433.849,313.07 434.281,313.065 434.712,313.059 435.144,313.054 435.575,313.048 436.007,313.043 436.438,313.037 436.87,313.032 437.301,313.027 437.732,313.021 438.164,313.016 438.595,313.011 439.027,313.006 439.458,313.001 439.89,312.995 440.321,312.99 440.753,312.985 441.184,312.98 441.616,312.976 442.047,312.971 442.478,312.966 442.91,312.961 443.341,312.956 443.773,312.951 444.204,312.947 444.636,312.942 445.067,312.937 445.499,312.933 445.93,312.928 446.361,312.924 446.793,312.919 447.224,312.915 447.656,312.91 448.087,312.906 448.519,312.901 448.95,312.897 449.382,312.893 449.813,312.888 450.245,312.884 450.676,312.88 451.108,312.876 451.539,312.871 451.97,312.867 452.402,312.863 452.833,312.859 453.265,312.855 453.696,312.851 454.128,312.847 454.559,312.843 454.991,312.839 455.422,312.835 455.853,312.832 456.285,312.828 456.716,312.824 457.148,312.82 457.579,312.816 458.011,312.813 458.442,312.809 458.874,312.805 459.305,312.802 459.737,312.798 460.168,312.794 460.599,312.791 461.031,312.787 461.462,312.784 461.894,312.78 462.325,312.777 462.757,312.773 463.188,312.77 463.62,312.767 464.051,312.763 464.483,312.76 464.914,312.757 465.345,312.753 465.777,312.75 466.208,312.747 466.64,312.744 467.071,312.741 467.503,312.737 467.934,312.734 468.366,312.731 468.797,312.728 469.229,312.725 469.66,312.722 470.091,312.719 470.523,312.716 470.954,312.713 471.386,312.71 471.817,312.707 472.249,312.704 472.68,312.701 473.112,312.698 473.543,312.695 473.975,312.693 474.406,312.69 474.837,312.687 475.269,312.684 475.7,312.682 476.132,312.679 476.563,312.676 476.995,312.673 477.426,312.671 477.858,312.668 478.289,312.665 478.721,312.663 479.152,312.66 479.583,312.658 480.015,312.655 480.446,312.653 480.878,312.65 481.309,312.648 481.741,312.645 482.172,312.643 482.604,312.64 483.035,312.638 483.467,312.635 483.898,312.633 484.329,312.631 484.761,312.628 485.192,312.626 485.624,312.624 486.055,312.621 486.487,312.619 486.918,312.617 487.35,312.615 487.781,312.612 488.213,312.61 488.644,312.608 489.075,312.606 489.507,312.604 489.938,312.602 490.37,312.599 490.801,312.597 491.233,312.595 491.664,312.593 492.096,312.591 492.527,312.589 492.959,312.587 493.39,312.585 493.821,312.583 494.253,312.581 494.684,312.579 495.116,312.577 495.547,312.575 495.979,312.573 496.41,312.571 496.842,312.569 497.273,312.567 497.704,312.566 498.136,312.564 498.567,312.562 498.999,312.56 499.43,312.558 499.862,312.556 500.293,312.555 500.725,312.553 501.156,312.551 501.588,312.549 502.019,312.548 502.45,312.546 502.882,312.544 503.313,312.542 503.745,312.541 504.176,312.539 504.608,312.537 505.039,312.536 505.471,312.534 505.902,312.532 506.334,312.531 506.765,312.529 507.197,312.528 507.628,312.526 508.059,312.525 508.491,312.523 508.922,312.521 509.354,312.52 509.785,312.518 510.217,312.517 510.648,312.515 511.08,312.514 511.511,312.512 511.943,312.511 512.374,312.509 512.805,312.508 513.237,312.507 513.668,312.505 514.1,312.504 514.531,312.502 514.963,312.501 515.394,312.5 515.826,312.498 516.257,312.497 516.688,312.496 517.12,312.494 517.551,312.493 517.983,312.492 518.414,312.49 518.846,312.489 519.277,312.488 519.709,312.486 520.14,312.485 520.572,312.484 521.003,312.483 521.434,312.481 521.866,312.48 522.297,312.479 522.729,312.478 523.16,312.476 523.592,312.475 524.023,312.474 524.455,312.473 524.886,312.472 525.318,312.471 525.749,312.469 526.18,312.468 526.612,312.467 527.043,312.466 527.475,312.465 527.906,312.464 528.338,312.463 528.769,312.462 529.201,312.46 529.632,312.459 530.064,312.458 530.495,312.457 530.926,312.456 531.358,312.455 531.789,312.454 532.221,312.453 532.652,312.452 533.084,312.451 533.515,312.45 533.947,312.449 534.378,312.448 534.81,312.447 535.241,312.446 535.672,312.445 536.104,312.444 536.535,312.443 536.967,312.442 537.398,312.441 537.83,312.44 538.261,312.439 538.693,312.438 539.124,312.438 539.555,312.437 539.987,312.436 540.418,312.435 540.85,312.434 541.281,312.433 541.713,312.432 542.144,312.431 542.576,312.43 543.007,312.43 543.439,312.429 543.87,312.428 544.302,312.427 544.733,312.426 545.164,312.425 545.596,312.425 546.027,312.424 546.459,312.423 546.89,312.422 547.322,312.421 547.753,312.421 548.185,312.42 548.616,312.419 549.048,312.418 549.479,312.418 549.91,312.417 550.342,312.416 550.773,312.415 551.205,312.415 551.636,312.414 552.068,312.413 552.499,312.412 552.931,312.412 553.362,312.411 553.794,312.41 554.225,312.409 554.656,312.409 555.088,312.408 555.519,312.407 555.951,312.407 556.382,312.406 556.814,312.405 557.245,312.405 557.677,312.404 558.108,312.403 558.539,312.403 558.971,312.402 559.402,312.401 559.834,312.401 560.265,312.4 560.697,312.4 561.128,312.399 561.56,312.398 561.991,312.398 562.423,312.397 562.854,312.396 563.285,312.396 563.717,312.395 564.148,312.395 564.58,312.394 565.011,312.393 565.443,312.393 565.874,312.392 566.306,312.392 566.737,312.391 567.169,312.391 567.6,312.39 568.031,312.39 568.463,312.389 568.894,312.388 569.326,312.388 569.757,312.387 570.189,312.387 570.62,312.386 571.052,312.386 571.483,312.385 571.915,312.385 572.346,312.384 572.778,312.384 573.209,312.383 573.64,312.383 574.072,312.382 574.503,312.382 574.935,312.381 575.366,312.381 575.798,312.38 576.229,312.38 576.661,312.379 577.092,312.379 577.523,312.378 577.955,312.378 578.386,312.377 578.818,312.377 579.249,312.376 579.681,312.376 580.112,312.376 580.544,312.375 580.975,312.375 581.407,312.374 581.838,312.374 582.269,312.373 582.701,312.373 583.132,312.373 583.564,312.372 583.995,312.372 584.427,312.371 584.858,312.371 585.29,312.37 585.721,312.37 586.153,312.37 586.584,312.369 587.015,312.369 587.447,312.368 587.878,312.368 588.31,312.368 588.741,312.367 589.173,312.367 589.604,312.367 590.036,312.366 590.467,312.366 590.899,312.365 591.33,312.365 591.761,312.365 592.193,312.364 592.624,312.364 593.056,312.364 593.487,312.363 593.919,312.363 594.35,312.363 594.782,312.362 595.213,312.362 595.645,312.361 596.076,312.361 596.507,312.361 596.939,312.36 597.37,312.36 597.802,312.36 598.233,312.359 598.665,312.359 599.096,312.359 599.528,312.359 599.959,312.358 600.391,312.358 600.822,312.358 601.253,312.357 601.685,312.357 602.116,312.357 602.548,312.356 602.979,312.356 603.411,312.356 603.842,312.355 604.274,312.355 604.705,312.355 605.136,312.355 605.568,312.354 605.999,312.354 606.431,312.354 606.862,312.353 607.294,312.353 607.725,312.353 608.157,312.353 608.588,312.352 609.02,312.352 609.451,312.352 609.883,312.352 610.314,312.351 610.745,312.351 611.177,312.351 611.608,312.35 612.04,312.35 612.471,312.35 612.903,312.35 613.334,312.349 613.766,312.349 614.197,312.349 614.629,312.349 615.06,312.348 615.491,312.348 615.923,312.348 616.354,312.348 616.786,312.347 617.217,312.347 617.649,312.347 618.08,312.347 618.512,312.347 618.943,312.346 619.375,312.346 619.806,312.346 620.237,312.346 620.669,312.345 621.1,312.345 621.532,312.345 621.963,312.345 622.395,312.345 622.826,312.344 623.258,312.344 623.689,312.344 624.12,312.344 624.552,312.343 624.983,312.343 625.415,312.343 625.846,312.343 626.278,312.343 626.709,312.342 627.141,312.342 627.572,312.342 628.004,312.342 628.435,312.342 628.866,312.341 629.298,312.341 629.729,312.341 630.161,312.341 630.592,312.341 631.024,312.341 631.455,312.34 631.887,312.34 632.318,312.34 632.75,312.34 633.181,312.34 633.612,312.339 634.044,312.339 634.475,312.339 634.907,312.339 635.338,312.339 635.77,312.339 636.201,312.338 636.633,312.338 637.064,312.338 637.496,312.338 637.927,312.338 638.359,312.338 638.79,312.337 639.221,312.337 639.653,312.337 640.084,312.337 640.516,312.337 640.947,312.337 641.379,312.336 641.81,312.336 642.242,312.336 642.673,312.336 643.104,312.336 643.536,312.336 643.967,312.336 644.399,312.335 644.83,312.335 645.262,312.335 645.693,312.335 646.125,312.335 646.556,312.335 646.988,312.335 647.419,312.334 647.85,312.334 648.282,312.334 648.713,312.334 649.145,312.334 649.576,312.334 650.008,312.334 650.439,312.333 650.871,312.333 651.302,312.333 651.734,312.333 652.165,312.333 652.596,312.333 653.028,312.333 653.459,312.333 653.891,312.332 654.322,312.332 654.754,312.332 655.185,312.332 655.617,312.332 656.048,312.332 656.48,312.332 656.911,312.332 657.342,312.332 657.774,312.331 658.205,312.331 658.637,312.331 659.068,312.331 659.5,312.331 659.931,312.331 660.363,312.331 660.794,312.331 661.226,312.331 661.657,312.33 662.088,312.33 662.52,312.33 662.951,312.33 663.383,312.33 663.814,312.33 664.246,312.33 664.677,312.33 665.109,312.33 665.54,312.329 665.971,312.329 666.403,312.329 666.834,312.329 667.266,312.329 667.697,312.329 668.129,312.329 668.56,312.329 668.992,312.329 669.423,312.329 669.855,312.328 670.286,312.328 670.718,312.328 671.149,312.328 671.58,312.328 672.012,312.328 672.443,312.328 672.875,312.328 673.306,312.328 673.738,312.328 674.169,312.328 674.601,312.327 675.032,312.327 675.464,312.327 675.895,312.327 676.326,312.327 676.758,312.327 677.189,312.327 677.621,312.327 678.052,312.327 678.484,312.327 678.915,312.327 679.347,312.327 679.778,312.326 680.21,312.326 680.641,312.326 681.072,312.326 681.504,312.326 681.935,312.326 682.367,312.326 682.798,312.326 683.23,312.326 683.661,312.326 684.093,312.326 684.524,312.326 684.956,312.326 685.387,312.326 685.818,312.325 686.25,312.325 686.681,312.325 687.113,312.325 687.544,312.325 687.976,312.325 688.407,312.325 688.839,312.325 689.27,312.325 689.701,312.325 690.133,312.325 690.564,312.325 690.996,312.325 691.427,312.325 691.859,312.324 692.29,312.324 692.722,312.324 693.153,312.324 693.585,312.324 694.016,312.324 694.447,312.324 694.879,312.324 695.31,312.324 695.742,312.324 696.173,312.324 696.605,312.324 697.036,312.324 697.468,312.324 697.899,312.324 698.331,312.324 698.762,312.324 699.194,312.323 699.625,312.323 700.056,312.323 700.488,312.323 700.919,312.323 701.351,312.323 701.782,312.323 702.214,312.323 702.645,312.323 703.077,312.323 703.508,312.323 703.94,312.323 704.371,312.323 704.802,312.323 705.234,312.323 705.665,312.323 706.097,312.323 706.528,312.323 706.96,312.323 707.391,312.322 707.823,312.322 708.254,312.322 708.685,312.322 709.117,312.322 709.548,312.322 709.98,312.322 710.411,312.322 710.843,312.322 711.274,312.322 711.706,312.322 712.137,312.322 712.569,312.322 713,312.322 713.431,312.322 713.863,312.322 714.294,312.322 714.726,312.322 715.157,312.322 715.589,312.322 716.02,312.322 716.452,312.322 716.883,312.321 717.315,312.321 717.746,312.321 718.177,312.321 718.609,312.321 719.04,312.321 719.472,312.321 719.903,312.321 720.335,312.321 720.766,312.321 721.198,312.321 721.629,312.321 722.061,312.321 722.492,312.321 722.923,312.321 723.355,312.321 723.786,312.321 724.218,312.321 724.649,312.321 725.081,312.321 725.512,312.321 725.944,312.321 726.375,312.321 726.807,312.321 727.238,312.321 727.669,312.32 728.101,312.32 728.532,312.32 728.964,312.32 729.395,312.32 729.827,312.32 730.258,312.32 730.69,312.32 731.121,312.32 731.552,312.32 731.984,312.32 732.415,312.32 732.847,312.32 733.278,312.32 733.71,312.32 734.141,312.32 734.573,312.32 735.004,312.32 735.436,312.32 735.867,312.32 736.299,312.32 736.73,312.32 737.161,312.32 737.593,312.32 738.024,312.32 738.456,312.32 738.887,312.32 739.319,312.32 739.75,312.32 740.182,312.32 740.613,312.32 741.045,312.32 741.476,312.32 741.907,312.319 742.339,312.319 742.77,312.319 743.202,312.319 743.633,312.319 744.065,312.319 744.496,312.319 744.928,312.319 745.359,312.319 745.791,312.319 746.222,312.319 746.653,312.319 747.085,312.319 747.516,312.319 747.948,312.319 748.379,312.319 748.811,312.319 749.242,312.319 749.674,312.319 750.105,312.319 750.536,312.319 750.968,312.319 751.399,312.319 751.831,312.319 752.262,312.319 752.694,312.319 753.125,312.319 753.557,312.319 753.988,312.319 754.42,312.319 754.851,312.319 755.282,312.319 755.714,312.319 756.145,312.319 756.577,312.319 757.008,312.319 757.44,312.319 757.871,312.319 758.303,312.319 758.734,312.319 759.166,312.319 759.597,312.319 760.028,312.319 760.46,312.319 760.891,312.318 761.323,312.318 761.754,312.318 762.186,312.318 762.617,312.318 763.049,312.318 763.48,312.318 763.912,312.318 764.343,312.318 764.775,312.318 765.206,312.318 765.637,312.318 766.069,312.318 766.5,312.318 766.932,312.318 767.363,312.318 767.795,312.318 768.226,312.318 768.658,312.318 769.089,312.318 769.521,312.318 769.952,312.318 770.383,312.318 770.815,312.318 771.246,312.318 771.678,312.318 772.109,312.318 772.541,312.318 772.972,312.318 773.404,312.318 773.835,312.318 774.266,312.318 774.698,312.318 775.129,312.318 775.561,312.318 775.992,312.318 776.424,312.318 776.855,312.318 777.287,312.318 777.718,312.318 778.15,312.318 778.581,312.318 779.012,312.318 779.444,312.318 779.875,312.318 780.307,312.318 780.738,312.318 781.17,312.318 781.601,312.318 782.033,312.318 782.464,312.318 782.896,312.318 783.327,312.318 783.758,312.318 784.19,312.318 784.621,312.318 785.053,312.318 785.484,312.318 785.916,312.318 786.347,312.318 786.779,312.318 787.21,312.318 787.642,312.318 788.073,312.318 788.504,312.318 788.936,312.318 789.367,312.317 789.799,312.317 790.23,312.317 790.662,312.317 791.093,312.317 791.525,312.317 791.956,312.317 792.388,312.317 792.819,312.317 793.25,312.317 793.682,312.317 794.113,312.317 794.545,312.317 794.976,312.317 795.408,312.317 795.839,312.317 796.271,312.317 796.702,312.317 797.133,312.317 797.565,312.317 797.996,312.317 798.428,312.317 798.859,312.317 799.291,312.317 799.722,312.317 800.154,312.317 800.585,312.317 801.017,312.317 801.448,312.317 801.88,312.317 802.311,312.317 802.742,312.317 803.174,312.317 803.605,312.317 804.037,312.317 804.468,312.317 804.9,312.317 805.331,312.317 805.763,312.317 806.194,312.317 806.626,312.317 807.057,312.317 807.488,312.317 807.92,312.317 808.351,312.317 808.783,312.317 809.214,312.317 809.646,312.317 810.077,312.317 810.509,312.317 810.94,312.317 811.372,312.317 811.803,312.317 812.234,312.317 812.666,312.317 813.097,312.317 813.529,312.317 813.96,312.317 814.392,312.317 814.823,312.317 815.255,312.317 815.686,312.317 816.117,312.317 816.549,312.317 816.98,312.317 817.412,312.317 817.843,312.317 818.275,312.317 818.706,312.317 819.138,312.317 819.569,312.317 820.001,312.317 820.432,312.317 820.863,312.317 821.295,312.317 821.726,312.317 822.158,312.317 822.589,312.317 823.021,312.317 823.452,312.317 823.884,312.317 824.315,312.317 824.747,312.317 825.178,312.317 825.609,312.317 826.041,312.317 826.472,312.317 826.904,312.317 827.335,312.317 827.767,312.317 828.198,312.317 828.63,312.317 829.061,312.317 829.493,312.317 829.924,312.317 830.356,312.317 830.787,312.317 831.218,312.317 831.65,312.317 832.081,312.317 832.513,312.317 832.944,312.317 833.376,312.317 833.807,312.317 834.239,312.317 834.67,312.317 835.102,312.317 835.533,312.317 835.964,312.317 836.396,312.317 836.827,312.317 837.259,312.317 837.69,312.317 838.122,312.317 838.553,312.317 838.985,312.317 839.416,312.317 839.847,312.317 840,312.317 " />
</g>

<g fill="none" stroke="#33ccff" stroke-opacity="1" stroke-width="2.66667" stroke-linecap="butt" stroke-linejoin="round" transform="matrix(0.75,0,0,0.75,-57.5,-26.9325)"
font-family="Helvetica" font-size="14" font-weight="700" font-style="normal" 
>
<polyline fill="none" vector-effect="none" points="121,384.91 121.05,384.885 121.172,384.824 121.295,384.763 121.418,384.702 121.54,384.641 121.663,384.58 121.786,384.519 121.908,384.458 122.031,384.396 122.154,384.335 122.277,384.274 122.399,384.212 122.522,384.151 122.645,384.089 122.768,384.028 122.89,383.966 123.013,383.904 123.136,383.843 123.259,383.781 123.382,383.719 123.505,383.657 123.627,383.595 123.75,383.533 123.873,383.471 123.996,383.409 124.119,383.347 124.242,383.285 124.365,383.222 124.488,383.16 124.61,383.098 124.733,383.035 124.856,382.973 124.979,382.91 125.102,382.848 125.225,382.785 125.348,382.723 125.471,382.66 125.594,382.597 125.717,382.534 125.84,382.472 125.963,382.409 126.086,382.346 126.209,382.283 126.332,382.22 126.455,382.157 126.579,382.094 126.702,382.03 126.825,381.967 126.948,381.904 127.071,381.841 127.194,381.777 127.317,381.714 127.44,381.65 127.564,381.587 127.687,381.523 127.81,381.46 127.933,381.396 128.056,381.332 128.18,381.269 128.303,381.205 128.426,381.141 128.549,381.077 128.673,381.013 128.796,380.949 128.919,380.885 129.042,380.821 129.166,380.757 129.289,380.693 129.412,380.629 129.536,380.565 129.659,380.5 129.783,380.436 129.906,380.371 130.029,380.307 130.153,380.243 130.276,380.178 130.4,380.113 130.523,380.049 130.646,379.984 130.77,379.919 130.893,379.855 131.017,379.79 131.14,379.725 131.264,379.66 131.387,379.595 131.511,379.53 131.635,379.465 131.758,379.4 131.882,379.335 132.005,379.27 132.129,379.205 132.252,379.14 132.376,379.074 132.5,379.009 132.623,378.944 132.747,378.878 132.871,378.813 132.994,378.747 133.118,378.682 133.242,378.616 133.365,378.551 133.489,378.485 133.613,378.419 133.737,378.353 133.86,378.288 133.984,378.222 134.108,378.156 134.232,378.09 134.355,378.024 134.479,377.958 134.603,377.892 134.727,377.826 134.851,377.76 134.975,377.694 135.098,377.628 135.222,377.561 135.346,377.495 135.47,377.429 135.594,377.362 135.718,377.296 135.842,377.23 135.966,377.163 136.09,377.097 136.214,377.03 136.338,376.963 136.462,376.897 136.586,376.83 136.71,376.763 136.834,376.697 136.958,376.63 137.082,376.563 137.206,376.496 137.33,376.429 137.454,376.362 137.578,376.295 137.702,376.228 137.826,376.161 137.95,376.094 138.075,376.027 138.199,375.96 138.323,375.893 138.447,375.825 138.571,375.758 138.695,375.691 138.82,375.624 138.944,375.556 139.068,375.489 139.192,375.421 139.316,375.354 139.441,375.286 139.565,375.219 139.689,375.151 139.814,375.083 139.938,375.016 140.062,374.948 140.186,374.88 140.311,374.813 140.435,374.745 140.559,374.677 140.684,374.609 140.808,374.541 140.933,374.473 141.057,374.405 141.181,374.337 141.306,374.269 141.43,374.201 141.555,374.133 141.679,374.065 141.803,373.997 141.928,373.929 142.052,373.86 142.177,373.792 142.301,373.724 142.426,373.655 142.55,373.587 142.675,373.519 142.8,373.45 142.924,373.382 143.049,373.313 143.173,373.245 143.298,373.176 143.422,373.108 143.547,373.039 143.672,372.971 143.796,372.902 143.921,372.833 144.045,372.764 144.17,372.696 144.295,372.627 144.419,372.558 144.544,372.489 144.669,372.42 144.793,372.352 144.918,372.283 145.043,372.214 145.168,372.145 145.292,372.076 145.417,372.007 145.542,371.938 145.667,371.869 145.791,371.799 145.916,371.73 146.041,371.661 146.166,371.592 146.291,371.523 146.415,371.454 146.54,371.384 146.665,371.315 146.79,371.246 146.915,371.176 147.04,371.107 147.165,371.038 147.289,370.968 147.414,370.899 147.539,370.829 147.664,370.76 147.789,370.69 147.914,370.621 148.039,370.551 148.164,370.482 148.289,370.412 148.414,370.342 148.539,370.273 148.664,370.203 148.789,370.133 148.914,370.064 149.039,369.994 149.164,369.924 149.289,369.855 149.414,369.785 149.539,369.715 149.664,369.645 149.789,369.575 149.914,369.505 150.039,369.436 150.164,369.366 150.289,369.296 150.414,369.226 150.539,369.156 150.664,369.086 150.789,369.016 150.915,368.946 151.04,368.876 151.165,368.806 151.29,368.736 151.415,368.666 151.54,368.596 151.665,368.525 151.791,368.455 151.916,368.385 152.041,368.315 152.166,368.245 152.291,368.175 152.416,368.104 152.542,368.034 152.667,367.964 152.792,367.894 152.917,367.824 153.042,367.753 153.168,367.683 153.293,367.613 153.418,367.542 153.543,367.472 153.669,367.402 153.794,367.331 153.919,367.261 154.044,367.191 154.17,367.12 154.295,367.05 154.42,366.979 154.545,366.909 154.671,366.839 154.796,366.768 154.921,366.698 155.047,366.627 155.172,366.557 155.297,366.486 155.422,366.416 155.548,366.345 155.673,366.275 155.798,366.204 155.924,366.134 156.049,366.063 156.174,365.993 156.3,365.922 156.425,365.852 156.55,365.781 156.676,365.711 156.801,365.64 156.926,365.57 157.052,365.499 157.177,365.428 157.302,365.358 157.428,365.287 157.553,365.217 157.678,365.146 157.804,365.076 157.929,365.005 158.055,364.934 158.18,364.864 158.305,364.793 158.431,364.723 158.556,364.652 158.681,364.581 158.807,364.511 158.932,364.44 159.057,364.37 159.183,364.299 159.308,364.228 159.434,364.158 159.559,364.087 159.684,364.017 159.81,363.946 159.935,363.875 160.06,363.805 160.186,363.734 160.311,363.664 160.436,363.593 160.562,363.522 160.687,363.452 160.812,363.381 160.938,363.311 161.063,363.24 161.188,363.17 161.314,363.099 161.439,363.028 161.565,362.958 161.69,362.887 161.815,362.817 161.941,362.746 162.066,362.676 162.191,362.605 162.316,362.535 162.442,362.464 162.567,362.394 162.692,362.323 162.818,362.253 162.943,362.182 163.068,362.112 163.194,362.041 163.319,361.971 163.444,361.901 163.57,361.83 163.695,361.76 163.82,361.689 163.945,361.619 164.071,361.549 164.196,361.478 164.321,361.408 164.446,361.338 164.572,361.267 164.697,361.197 164.822,361.127 164.947,361.056 165.072,360.986 165.198,360.916 165.323,360.846 165.448,360.775 165.573,360.705 165.698,360.635 165.824,360.565 165.949,360.495 166.074,360.424 166.199,360.354 166.324,360.284 166.449,360.214 166.574,360.144 166.7,360.074 166.825,360.004 166.95,359.934 167.075,359.864 167.2,359.794 167.325,359.724 167.45,359.654 167.575,359.584 167.7,359.514 167.825,359.445 167.95,359.375 168.075,359.305 168.2,359.235 168.325,359.165 168.45,359.096 168.575,359.026 168.7,358.956 168.825,358.886 168.95,358.817 169.075,358.747 169.2,358.677 169.325,358.608 169.449,358.538 169.574,358.469 169.699,358.399 169.824,358.33 169.949,358.26 170.074,358.191 170.199,358.121 170.323,358.052 170.448,357.983 170.573,357.913 170.698,357.844 170.822,357.775 170.947,357.706 171.072,357.636 171.196,357.567 171.321,357.498 171.446,357.429 171.57,357.36 171.695,357.291 171.82,357.222 171.944,357.153 172.069,357.084 172.194,357.015 172.318,356.946 172.443,356.877 172.567,356.808 172.692,356.74 172.816,356.671 172.941,356.602 173.065,356.533 173.19,356.465 173.314,356.396 173.438,356.328 173.563,356.259 173.687,356.19 173.812,356.122 173.936,356.053 174.06,355.985 174.185,355.917 174.309,355.848 174.433,355.78 174.557,355.712 174.682,355.644 174.806,355.575 174.93,355.507 175.054,355.439 175.179,355.371 175.303,355.303 175.427,355.235 175.551,355.167 175.675,355.099 175.799,355.031 175.923,354.963 176.047,354.896 176.171,354.828 176.295,354.76 176.419,354.692 176.543,354.625 176.667,354.557 176.791,354.49 176.915,354.422 177.039,354.355 177.163,354.287 177.287,354.22 177.41,354.152 177.534,354.085 177.658,354.018 177.782,353.951 177.906,353.884 178.029,353.816 178.153,353.749 178.277,353.682 178.4,353.615 178.524,353.548 178.648,353.482 178.771,353.415 178.895,353.348 179.018,353.281 179.142,353.214 179.265,353.148 179.389,353.081 179.512,353.015 179.636,352.948 179.759,352.882 179.883,352.815 180.006,352.749 180.129,352.682 180.253,352.616 180.376,352.55 180.499,352.484 180.622,352.418 180.746,352.352 180.869,352.286 180.992,352.22 181.115,352.154 181.238,352.088 181.362,352.022 181.485,351.956 181.608,351.89 181.731,351.825 181.854,351.759 181.977,351.694 182.1,351.628 182.223,351.563 182.346,351.497 182.468,351.432 182.591,351.367 182.714,351.301 182.837,351.236 182.96,351.171 183.083,351.106 183.205,351.041 183.328,350.976 183.451,350.911 183.573,350.846 183.696,350.781 183.819,350.717 183.941,350.652 184.064,350.587 184.186,350.523 184.309,350.458 184.431,350.394 184.554,350.329 184.676,350.265 184.799,350.2 184.921,350.136 185.044,350.072 185.166,350.008 185.288,349.944 185.411,349.88 185.533,349.816 185.655,349.752 185.777,349.688 185.9,349.624 186.022,349.56 186.144,349.497 186.266,349.433 186.388,349.37 186.51,349.306 186.632,349.243 186.754,349.179 186.876,349.116 186.998,349.053 187.12,348.989 187.242,348.926 187.364,348.863 187.486,348.8 187.608,348.737 187.729,348.674 187.851,348.611 187.973,348.549 188.095,348.486 188.216,348.423 188.338,348.361 188.46,348.298 188.581,348.236 188.703,348.173 188.825,348.111 188.946,348.048 189.068,347.986 189.189,347.924 189.311,347.862 189.432,347.8 189.553,347.738 189.675,347.676 189.796,347.614 189.918,347.552 190.039,347.49 190.16,347.429 190.281,347.367 190.403,347.306 190.524,347.244 190.645,347.183 190.766,347.121 190.887,347.06 191.009,346.999 191.13,346.938 191.251,346.876 191.372,346.815 191.493,346.754 191.614,346.694 191.735,346.633 191.856,346.572 191.976,346.511 192.097,346.451 192.218,346.39 192.339,346.329 192.46,346.269 192.581,346.208 192.701,346.148 192.822,346.088 192.943,346.028 193.063,345.968 193.184,345.907 193.305,345.847 193.425,345.788 193.546,345.728 193.666,345.668 193.787,345.608 193.907,345.548 194.028,345.489 194.148,345.429 194.269,345.37 194.389,345.31 194.51,345.251 194.63,345.192 194.75,345.132 194.87,345.073 194.991,345.014 195.111,344.955 195.231,344.896 195.351,344.837 195.472,344.779 195.592,344.72 195.712,344.661 195.832,344.602 195.952,344.544 196.072,344.485 196.192,344.427 196.312,344.369 196.432,344.31 196.552,344.252 196.672,344.194 196.792,344.136 196.912,344.078 197.032,344.02 197.152,343.962 197.271,343.904 197.391,343.846 197.511,343.789 197.631,343.731 197.75,343.674 197.87,343.616 197.99,343.559 198.109,343.501 198.229,343.444 198.349,343.387 198.468,343.33 198.588,343.273 198.707,343.216 198.827,343.159 198.946,343.102 199.066,343.045 199.185,342.988 199.305,342.932 199.424,342.875 199.543,342.819 199.663,342.762 199.782,342.706 199.901,342.65 200.021,342.593 200.14,342.537 200.259,342.481 200.378,342.425 200.498,342.369 200.617,342.313 200.736,342.257 200.855,342.202 200.974,342.146 201.093,342.09 201.212,342.035 201.331,341.979 201.45,341.924 201.569,341.868 201.688,341.813 201.807,341.758 201.926,341.703 202.045,341.648 202.164,341.593 202.283,341.538 202.402,341.483 202.521,341.428 202.639,341.373 202.758,341.319 202.877,341.264 202.996,341.21 203.114,341.155 203.233,341.101 203.352,341.047 203.471,340.992 203.589,340.938 203.708,340.884 203.826,340.83 203.945,340.776 204.064,340.722 204.182,340.668 204.301,340.615 204.419,340.561 204.538,340.507 204.656,340.454 204.775,340.4 204.893,340.347 205.012,340.293 205.13,340.24 205.248,340.187 205.367,340.134 205.485,340.081 205.604,340.028 205.722,339.975 205.84,339.922 205.958,339.869 206.077,339.817 206.195,339.764 206.313,339.711 206.431,339.659 206.55,339.606 206.668,339.554 206.786,339.502 206.904,339.45 207.022,339.397 207.14,339.345 207.258,339.293 207.377,339.241 207.495,339.189 207.613,339.138 207.731,339.086 207.849,339.034 207.967,338.983 208.085,338.931 208.203,338.88 208.321,338.828 208.439,338.777 208.557,338.726 208.674,338.674 208.792,338.623 208.91,338.572 209.028,338.521 209.146,338.47 209.264,338.42 209.382,338.369 209.499,338.318 209.617,338.268 209.735,338.217 209.853,338.166 209.971,338.116 210.088,338.066 210.206,338.015 210.324,337.965 210.442,337.915 210.559,337.865 210.677,337.815 210.795,337.765 210.912,337.715 211.03,337.665 211.148,337.616 211.265,337.566 211.383,337.516 211.5,337.467 211.618,337.417 211.736,337.368 211.853,337.319 211.971,337.269 212.088,337.22 212.206,337.171 212.324,337.122 212.441,337.073 212.559,337.024 212.676,336.975 212.794,336.926 212.911,336.878 213.029,336.829 213.146,336.781 213.264,336.732 213.381,336.684 213.498,336.635 213.616,336.587 213.733,336.539 213.851,336.49 213.968,336.442 214.086,336.394 214.203,336.346 214.32,336.298 214.438,336.251 214.555,336.203 214.672,336.155 214.79,336.108 214.907,336.06 215.024,336.013 215.142,335.965 215.259,335.918 215.376,335.87 215.494,335.823 215.611,335.776 215.728,335.729 215.846,335.682 215.963,335.635 216.08,335.588 216.197,335.541 216.315,335.495 216.432,335.448 216.549,335.401 216.667,335.355 216.784,335.308 216.901,335.262 217.018,335.216 217.136,335.169 217.253,335.123 217.37,335.077 217.487,335.031 217.604,334.985 217.722,334.939 217.839,334.893 217.956,334.847 218.073,334.802 218.19,334.756 218.308,334.71 218.425,334.665 218.542,334.619 218.659,334.574 218.776,334.529 218.893,334.483 219.011,334.438 219.128,334.393 219.245,334.348 219.362,334.303 219.479,334.258 219.596,334.213 219.714,334.168 219.831,334.124 219.948,334.079 220.065,334.034 220.182,333.99 220.299,333.945 220.416,333.901 220.534,333.857 220.651,333.812 220.768,333.768 220.885,333.724 221.002,333.68 221.119,333.636 221.236,333.592 221.354,333.548 221.471,333.504 221.588,333.461 221.705,333.417 221.822,333.373 221.939,333.33 222.056,333.286 222.174,333.243 222.291,333.199 222.408,333.156 222.525,333.113 222.642,333.07 222.759,333.027 222.876,332.984 222.994,332.941 223.111,332.898 223.228,332.855 223.345,332.812 223.462,332.77 223.579,332.727 223.697,332.684 223.814,332.642 223.931,332.599 224.048,332.557 224.165,332.515 224.283,332.473 224.4,332.43 224.517,332.388 224.634,332.346 224.751,332.304 224.869,332.262 224.986,332.221 225.103,332.179 225.22,332.137 225.337,332.095 225.455,332.054 225.572,332.012 225.689,331.971 225.807,331.929 225.924,331.888 226.041,331.847 226.158,331.806 226.276,331.764 226.393,331.723 226.51,331.682 226.627,331.641 226.745,331.6 226.862,331.56 226.979,331.519 227.097,331.478 227.214,331.438 227.331,331.397 227.449,331.356 227.566,331.316 227.683,331.276 227.801,331.235 227.918,331.195 228.036,331.155 228.153,331.115 228.27,331.075 228.388,331.035 228.505,330.995 228.623,330.955 228.74,330.915 228.858,330.875 228.975,330.836 229.093,330.796 229.21,330.756 229.328,330.717 229.445,330.677 229.563,330.638 229.68,330.599 229.798,330.559 229.916,330.52 230.033,330.481 230.151,330.442 230.268,330.403 230.386,330.364 230.504,330.325 230.621,330.286 230.739,330.248 230.857,330.209 230.975,330.17 231.092,330.132 231.21,330.093 231.328,330.055 231.446,330.016 231.563,329.978 231.681,329.94 231.799,329.902 231.917,329.863 232.035,329.825 232.152,329.787 232.27,329.749 232.388,329.711 232.506,329.674 232.624,329.636 232.742,329.598 232.86,329.56 232.978,329.523 233.096,329.485 233.214,329.448 233.332,329.41 233.45,329.373 233.568,329.336 233.686,329.299 233.804,329.261 233.922,329.224 234.04,329.187 234.159,329.15 234.277,329.113 234.395,329.076 234.513,329.04 234.631,329.003 234.749,328.966 234.868,328.93 234.986,328.893 235.104,328.856 235.223,328.82 235.341,328.784 235.459,328.747 235.578,328.711 235.696,328.675 235.814,328.639 235.933,328.603 236.051,328.567 236.17,328.531 236.288,328.495 236.407,328.459 236.525,328.423 236.644,328.387 236.762,328.352 236.881,328.316 237,328.28 237.118,328.245 237.237,328.21 237.356,328.174 237.474,328.139 237.593,328.104 237.712,328.068 237.831,328.033 237.949,327.998 238.068,327.963 238.187,327.928 238.306,327.893 238.425,327.858 238.544,327.824 238.663,327.789 238.782,327.754 238.901,327.72 239.02,327.685 239.139,327.65 239.258,327.616 239.377,327.582 239.496,327.547 239.615,327.513 239.734,327.479 239.854,327.445 239.973,327.411 240.092,327.377 240.211,327.343 240.331,327.309 240.45,327.275 240.57,327.241 240.689,327.207 240.808,327.174 240.928,327.14 241.047,327.106 241.167,327.073 241.286,327.039 241.406,327.006 241.525,326.973 241.645,326.939 241.765,326.906 241.884,326.873 242.004,326.84 242.124,326.807 242.244,326.774 242.363,326.741 242.483,326.708 242.603,326.675 242.723,326.642 242.843,326.609 242.963,326.577 243.083,326.544 243.203,326.512 243.323,326.479 243.443,326.447 243.563,326.414 243.684,326.382 243.804,326.35 243.924,326.317 244.044,326.285 244.165,326.253 244.285,326.221 244.405,326.189 244.526,326.157 244.646,326.125 244.766,326.093 244.887,326.062 245.007,326.03 245.128,325.998 245.249,325.967 245.369,325.935 245.49,325.903 245.611,325.872 245.731,325.841 245.852,325.809 245.973,325.778 246.094,325.747 246.215,325.716 246.335,325.684 246.456,325.653 246.577,325.622 246.698,325.591 246.819,325.561 246.94,325.53 247.061,325.499 247.183,325.468 247.304,325.438 247.425,325.407 247.546,325.376 247.668,325.346 247.789,325.315 247.91,325.285 248.032,325.255 248.153,325.224 248.274,325.194 248.396,325.164 248.518,325.134 248.639,325.104 248.761,325.074 248.882,325.044 249.004,325.014 249.126,324.984 249.247,324.954 249.369,324.924 249.491,324.895 249.613,324.865 249.735,324.835 249.857,324.806 249.979,324.776 250.101,324.747 250.223,324.718 250.345,324.688 250.467,324.659 250.589,324.63 250.711,324.601 250.834,324.572 250.956,324.542 251.078,324.513 251.201,324.485 251.323,324.456 251.446,324.427 251.568,324.398 251.691,324.369 251.813,324.341 251.936,324.312 252.058,324.283 252.181,324.255 252.304,324.226 252.426,324.198 252.549,324.17 252.672,324.141 252.795,324.113 252.918,324.085 253.041,324.057 253.164,324.029 253.287,324.001 253.41,323.973 253.533,323.945 253.656,323.917 253.779,323.889 253.903,323.861 254.026,323.834 254.149,323.806 254.273,323.778 254.396,323.751 254.519,323.723 254.643,323.696 254.767,323.668 254.89,323.641 255.014,323.614 255.137,323.586 255.261,323.559 255.385,323.532 255.509,323.505 255.633,323.478 255.757,323.451 255.881,323.424 256.005,323.397 256.129,323.37 256.253,323.343 256.377,323.317 256.501,323.29 256.625,323.263 256.75,323.237 256.874,323.21 256.998,323.184 257.123,323.157 257.247,323.131 257.372,323.104 257.496,323.078 257.621,323.052 257.746,323.026 257.87,323 257.995,322.973 258.12,322.947 258.245,322.921 258.369,322.896 258.494,322.87 258.619,322.844 258.744,322.818 258.869,322.792 258.994,322.767 259.119,322.741 259.245,322.715 259.37,322.69 259.495,322.665 259.62,322.639 259.746,322.614 259.871,322.588 259.996,322.563 260.122,322.538 260.247,322.513 260.373,322.488 260.498,322.463 260.624,322.438 260.75,322.413 260.875,322.388 261.001,322.363 261.127,322.338 261.253,322.313 261.379,322.289 261.505,322.264 261.631,322.239 261.757,322.215 261.883,322.19 262.009,322.166 262.135,322.141 262.261,322.117 262.388,322.093 262.514,322.069 262.64,322.044 262.766,322.02 262.893,321.996 263.019,321.972 263.146,321.948 263.272,321.924 263.399,321.9 263.526,321.876 263.652,321.853 263.779,321.829 263.906,321.805 264.033,321.781 264.159,321.758 264.286,321.734 264.413,321.711 264.54,321.687 264.667,321.664 264.794,321.641 264.921,321.617 265.049,321.594 265.176,321.571 265.303,321.548 265.43,321.525 265.558,321.501 265.685,321.479 265.813,321.456 265.94,321.433 266.067,321.41 266.195,321.387 266.323,321.364 266.45,321.341 266.578,321.319 266.706,321.296 266.833,321.274 266.961,321.251 267.089,321.229 267.217,321.206 267.345,321.184 267.473,321.162 267.601,321.139 267.729,321.117 267.857,321.095 267.985,321.073 268.114,321.051 268.242,321.029 268.37,321.007 268.499,320.985 268.627,320.963 268.755,320.941 268.884,320.919 269.012,320.898 269.141,320.876 269.27,320.854 269.398,320.833 269.527,320.811 269.656,320.79 269.784,320.768 269.913,320.747 270.042,320.725 270.171,320.704 270.3,320.683 270.429,320.662 270.558,320.641 270.687,320.619 270.816,320.598 270.945,320.577 271.075,320.556 271.204,320.535 271.333,320.515 271.463,320.494 271.592,320.473 271.721,320.452 271.851,320.432 271.98,320.411 272.11,320.39 272.24,320.37 272.369,320.349 272.499,320.329 272.629,320.309 272.759,320.288 272.888,320.268 273.018,320.248 273.148,320.227 273.278,320.207 273.408,320.187 273.538,320.167 273.668,320.147 273.799,320.127 273.929,320.107 274.059,320.087 274.189,320.068 274.32,320.048 274.45,320.028 274.58,320.008 274.711,319.989 274.841,319.969 274.972,319.949 275.102,319.93 275.233,319.911 275.364,319.891 275.494,319.872 275.625,319.852 275.756,319.833 275.887,319.814 276.018,319.795 276.149,319.776 276.28,319.757 276.411,319.738 276.542,319.719 276.673,319.7 276.804,319.681 276.935,319.662 277.066,319.643 277.198,319.624 277.329,319.606 277.46,319.587 277.592,319.568 277.723,319.55 277.854,319.531 277.986,319.513 278.117,319.494 278.249,319.476 278.381,319.457 278.512,319.439 278.644,319.421 278.776,319.403 278.908,319.384 279.039,319.366 279.171,319.348 279.303,319.33 279.435,319.312 279.567,319.294 279.699,319.276 279.831,319.259 279.964,319.241 280.096,319.223 280.228,319.205 280.36,319.188 280.493,319.17 280.625,319.152 280.757,319.135 280.89,319.117 281.022,319.1 281.155,319.082 281.287,319.065 281.42,319.048 281.552,319.031 281.685,319.013 281.818,318.996 281.951,318.979 282.083,318.962 282.216,318.945 282.349,318.928 282.482,318.911 282.615,318.894 282.748,318.877 282.881,318.86 283.014,318.843 283.147,318.827 283.28,318.81 283.414,318.793 283.547,318.777 283.68,318.76 283.813,318.744 283.947,318.727 284.08,318.711 284.214,318.694 284.347,318.678 284.481,318.662 284.614,318.645 284.748,318.629 284.882,318.613 285.015,318.597 285.149,318.581 285.283,318.565 285.417,318.549 285.55,318.533 285.684,318.517 285.818,318.501 285.952,318.485 286.086,318.469 286.22,318.453 286.354,318.438 286.488,318.422 286.623,318.406 286.757,318.391 286.891,318.375 287.025,318.36 287.16,318.344 287.294,318.329 287.428,318.313 287.563,318.298 287.697,318.283 287.832,318.267 287.966,318.252 288.101,318.237 288.236,318.222 288.37,318.207 288.505,318.192 288.64,318.177 288.774,318.162 288.909,318.147 289.044,318.132 289.179,318.117 289.314,318.102 289.449,318.088 289.584,318.073 289.719,318.058 289.854,318.044 289.989,318.029 290.124,318.014 290.259,318 290.395,317.985 290.53,317.971 290.665,317.957 290.8,317.942 290.936,317.928 291.071,317.914 291.207,317.899 291.342,317.885 291.478,317.871 291.613,317.857 291.749,317.843 291.884,317.829 292.02,317.815 292.156,317.801 292.292,317.787 292.427,317.773 292.563,317.759 292.699,317.745 292.835,317.732 292.971,317.718 293.107,317.704 293.243,317.691 293.379,317.677 293.515,317.664 293.651,317.65 293.787,317.637 293.923,317.623 294.059,317.61 294.196,317.596 294.332,317.583 294.468,317.57 294.604,317.556 294.741,317.543 294.877,317.53 295.014,317.517 295.15,317.504 295.287,317.491 295.423,317.478 295.56,317.465 295.696,317.452 295.833,317.439 295.97,317.426 296.106,317.413 296.243,317.4 296.38,317.388 296.517,317.375 296.654,317.362 296.79,317.35 296.927,317.337 297.064,317.325 297.201,317.312 297.338,317.299 297.475,317.287 297.612,317.275 297.75,317.262 297.887,317.25 298.024,317.238 298.161,317.225 298.298,317.213 298.436,317.201 298.573,317.189 298.71,317.177 298.848,317.165 298.985,317.152 299.122,317.14 299.26,317.129 299.397,317.117 299.535,317.105 299.673,317.093 299.81,317.081 299.948,317.069 300.085,317.057 300.223,317.046 300.361,317.034 300.499,317.022 300.636,317.011 300.774,316.999 300.912,316.988 301.05,316.976 301.188,316.965 301.326,316.953 301.464,316.942 301.602,316.93 301.74,316.919 301.878,316.908 302.016,316.896 302.154,316.885 302.292,316.874 302.43,316.863 302.569,316.852 302.707,316.841 302.845,316.83 302.983,316.819 303.122,316.808 303.26,316.797 303.399,316.786 303.537,316.775 303.675,316.764 303.814,316.753 303.952,316.742 304.091,316.732 304.23,316.721 304.368,316.71 304.507,316.7 304.645,316.689 304.784,316.678 304.923,316.668 305.062,316.657 305.2,316.647 305.339,316.636 305.478,316.626 305.617,316.616 305.756,316.605 305.895,316.595 306.033,316.585 306.172,316.574 306.311,316.564 306.45,316.554 306.589,316.544 306.728,316.534 306.868,316.524 307.007,316.514 307.146,316.504 307.285,316.494 307.424,316.484 307.563,316.474 307.703,316.464 307.842,316.454 307.981,316.444 308.121,316.434 308.26,316.424 308.399,316.415 308.539,316.405 308.678,316.395 308.818,316.386 308.957,316.376 309.097,316.366 309.236,316.357 309.376,316.347 309.515,316.338 309.655,316.328 309.794,316.319 309.934,316.31 310.074,316.3 310.214,316.291 310.353,316.282 310.493,316.272 310.633,316.263 310.773,316.254 310.912,316.245 311.052,316.236 311.192,316.226 311.332,316.217 311.472,316.208 311.612,316.199 311.752,316.19 311.892,316.181 312.032,316.172 312.172,316.163 312.312,316.154 312.452,316.146 312.592,316.137 312.732,316.128 312.873,316.119 313.013,316.11 313.153,316.102 313.293,316.093 313.433,316.084 313.574,316.076 313.714,316.067 313.854,316.059 313.995,316.05 314.135,316.041 314.275,316.033 314.416,316.025 314.556,316.016 314.697,316.008 314.837,315.999 314.978,315.991 315.118,315.983 315.259,315.974 315.399,315.966 315.54,315.958 315.681,315.95 315.821,315.941 315.962,315.933 316.102,315.925 316.243,315.917 316.384,315.909 316.525,315.901 316.665,315.893 316.806,315.885 316.947,315.877 317.088,315.869 317.229,315.861 317.369,315.853 317.51,315.845 317.651,315.837 317.792,315.83 317.933,315.822 318.074,315.814 318.215,315.806 318.356,315.799 318.497,315.791 318.638,315.783 318.779,315.776 318.92,315.768 319.061,315.76 319.202,315.753 319.343,315.745 319.484,315.738 319.626,315.73 319.767,315.723 319.908,315.716 320.049,315.708 320.19,315.701 320.332,315.693 320.473,315.686 320.614,315.679 320.755,315.671 320.897,315.664 321.038,315.657 321.18,315.65 321.321,315.643 321.462,315.635 321.604,315.628 321.745,315.621 321.887,315.614 322.028,315.607 322.17,315.6 322.311,315.593 322.453,315.586 322.594,315.579 322.736,315.572 322.877,315.565 323.019,315.558 323.16,315.551 323.302,315.545 323.444,315.538 323.585,315.531 323.727,315.524 323.869,315.517 324.011,315.511 324.152,315.504 324.294,315.497 324.436,315.491 324.578,315.484 324.719,315.477 324.861,315.471 325.003,315.464 325.145,315.457 325.287,315.451 325.428,315.444 325.57,315.438 325.712,315.431 325.854,315.425 325.996,315.419 326.138,315.412 326.28,315.406 326.422,315.399 326.564,315.393 326.706,315.387 326.848,315.38 326.99,315.374 327.132,315.368 327.274,315.362 327.416,315.355 327.558,315.349 327.7,315.343 327.842,315.337 327.985,315.331 328.127,315.325 328.269,315.318 328.411,315.312 328.553,315.306 328.695,315.3 328.838,315.294 328.98,315.288 329.122,315.282 329.264,315.276 329.407,315.27 329.549,315.264 329.691,315.259 329.833,315.253 329.976,315.247 330.118,315.241 330.26,315.235 330.403,315.229 330.545,315.224 330.687,315.218 330.83,315.212 330.972,315.206 331.115,315.201 331.257,315.195 331.399,315.189 331.542,315.184 331.684,315.178 331.827,315.172 331.969,315.167 332.112,315.161 332.254,315.156 332.397,315.15 332.539,315.144 332.682,315.139 332.824,315.133 332.967,315.128 333.109,315.122 333.252,315.117 333.395,315.112 333.537,315.106 333.68,315.101 333.822,315.095 333.965,315.09 334.108,315.085 334.25,315.079 334.393,315.074 334.536,315.069 334.678,315.064 334.821,315.058 334.964,315.053 335.106,315.048 335.249,315.043 335.392,315.038 335.534,315.032 335.677,315.027 335.82,315.022 335.963,315.017 336.105,315.012 336.248,315.007 336.391,315.002 336.534,314.997 336.677,314.992 336.819,314.987 336.962,314.982 337.105,314.977 337.248,314.972 337.391,314.967 337.534,314.962 337.677,314.957 337.819,314.952 337.962,314.947 338.105,314.942 338.248,314.937 338.391,314.932 338.534,314.927 338.677,314.923 338.82,314.918 338.963,314.913 339.106,314.908 339.249,314.903 339.392,314.899 339.535,314.894 339.677,314.889 339.82,314.885 339.964,314.88 340.107,314.875 340.25,314.871 340.393,314.866 340.536,314.861 340.679,314.857 340.822,314.852 340.965,314.847 341.108,314.843 341.251,314.838 341.394,314.834 341.537,314.829 341.68,314.825 341.823,314.82 341.966,314.816 342.109,314.811 342.252,314.807 342.395,314.802 342.539,314.798 342.682,314.793 342.825,314.789 342.968,314.784 343.111,314.78 343.254,314.776 343.397,314.771 343.541,314.767 343.684,314.763 343.827,314.758 343.97,314.754 344.113,314.75 344.257,314.745 344.4,314.741 344.543,314.737 344.686,314.733 344.829,314.728 344.973,314.724 345.116,314.72 345.259,314.716 345.402,314.711 345.546,314.707 345.689,314.703 345.832,314.699 345.975,314.695 346.119,314.691 346.262,314.686 346.405,314.682 346.548,314.678 346.692,314.674 346.835,314.67 346.978,314.666 347.122,314.662 347.265,314.658 347.408,314.654 347.551,314.65 347.695,314.646 347.838,314.642 347.981,314.638 348.125,314.634 348.268,314.63 348.411,314.626 348.555,314.622 348.698,314.618 348.842,314.614 348.985,314.61 349.128,314.606 349.272,314.602 349.415,314.598 349.558,314.595 349.702,314.591 349.845,314.587 349.989,314.583 350.132,314.579 350.275,314.575 350.419,314.572 350.562,314.568 350.706,314.564 350.849,314.56 350.992,314.556 351.136,314.553 351.279,314.549 351.423,314.545 351.566,314.541 351.71,314.538 351.853,314.534 351.997,314.53 352.14,314.526 352.283,314.523 352.427,314.519 352.57,314.515 352.714,314.512 352.857,314.508 353.001,314.504 353.144,314.501 353.288,314.497 353.431,314.494 353.575,314.49 353.718,314.486 353.862,314.483 354.005,314.479 354.149,314.476 354.292,314.472 354.436,314.468 354.579,314.465 354.723,314.461 354.866,314.458 355.01,314.454 355.153,314.451 355.297,314.447 355.44,314.444 355.584,314.44 355.728,314.437 355.871,314.433 356.015,314.43 356.158,314.426 356.302,314.423 356.445,314.419 356.589,314.416 356.732,314.413 356.876,314.409 357.019,314.406 357.163,314.402 357.307,314.399 357.45,314.396 357.594,314.392 357.737,314.389 357.881,314.385 358.024,314.382 358.168,314.379 358.312,314.375 358.455,314.372 358.599,314.369 358.742,314.365 358.886,314.362 359.03,314.359 359.173,314.355 359.317,314.352 359.46,314.349 359.604,314.345 359.748,314.342 359.891,314.339 360.035,314.336 360.178,314.332 360.322,314.329 360.466,314.326 360.609,314.323 360.753,314.319 360.897,314.316 361.04,314.313 361.184,314.31 361.327,314.307 361.471,314.303 361.615,314.3 361.758,314.297 361.902,314.294 362.046,314.291 362.189,314.287 362.333,314.284 362.477,314.281 362.62,314.278 362.764,314.275 362.907,314.272 363.051,314.268 363.195,314.265 363.338,314.262 363.482,314.259 363.626,314.256 363.769,314.253 363.913,314.25 364.057,314.247 364.2,314.244 364.344,314.24 364.488,314.237 364.631,314.234 364.775,314.231 364.919,314.228 365.062,314.225 365.206,314.222 365.35,314.219 365.493,314.216 365.637,314.213 365.781,314.21 365.924,314.207 366.068,314.204 366.212,314.201 366.356,314.198 366.499,314.195 366.643,314.192 366.787,314.189 366.93,314.186 367.074,314.183 367.218,314.18 367.361,314.177 367.505,314.174 367.649,314.171 367.792,314.168 367.936,314.165 368.08,314.162 368.224,314.159 368.367,314.156 368.511,314.153 368.655,314.15 368.798,314.147 368.942,314.144 369.086,314.141 369.229,314.138 369.373,314.136 369.517,314.133 369.661,314.13 369.804,314.127 369.948,314.124 370.092,314.121 370.235,314.118 370.379,314.115 370.523,314.112 370.667,314.109 370.81,314.107 370.954,314.104 371.098,314.101 371.242,314.098 371.385,314.095 371.529,314.092 371.673,314.089 371.816,314.087 371.96,314.084 372.104,314.081 372.248,314.078 372.391,314.075 372.535,314.072 372.679,314.07 372.823,314.067 372.966,314.064 373.11,314.061 373.254,314.058 373.397,314.055 373.541,314.053 373.685,314.05 373.829,314.047 373.972,314.044 374.116,314.041 374.26,314.039 374.404,314.036 374.547,314.033 374.691,314.03 374.835,314.027 374.979,314.025 375.122,314.022 375.266,314.019 375.41,314.016 375.554,314.014 375.697,314.011 375.841,314.008 375.985,314.005 376.128,314.003 376.272,314 376.416,313.997 376.56,313.994 376.703,313.992 376.847,313.989 376.991,313.986 377.135,313.983 377.278,313.981 377.422,313.978 377.566,313.975 377.71,313.973 377.853,313.97 377.997,313.967 378.141,313.964 378.285,313.962 378.428,313.959 378.572,313.956 378.716,313.954 378.86,313.951 379.003,313.948 379.147,313.946 379.291,313.943 379.435,313.94 379.578,313.937 379.722,313.935 379.866,313.932 380.01,313.929 380.153,313.927 380.297,313.924 380.441,313.921 380.585,313.919 380.729,313.916 380.872,313.913 381.016,313.911 381.16,313.908 381.304,313.905 381.447,313.903 381.591,313.9 381.735,313.897 381.879,313.895 382.022,313.892 382.166,313.89 382.31,313.887 382.454,313.884 382.597,313.882 382.741,313.879 382.885,313.876 383.029,313.874 383.172,313.871 383.316,313.868 383.46,313.866 383.604,313.863 383.747,313.861 383.891,313.858 384.035,313.855 384.179,313.853 384.323,313.85 384.466,313.848 384.61,313.845 384.754,313.842 384.898,313.84 385.041,313.837 385.185,313.834 385.329,313.832 385.473,313.829 385.616,313.827 385.76,313.824 385.904,313.821 386.048,313.819 386.192,313.816 386.335,313.814 386.479,313.811 386.623,313.809 386.767,313.806 386.91,313.803 387.054,313.801 387.198,313.798 387.342,313.796 387.485,313.793 387.629,313.79 387.773,313.788 387.917,313.785 388.06,313.783 388.204,313.78 388.348,313.778 388.492,313.775 388.636,313.773 388.779,313.77 388.923,313.767 389.067,313.765 389.211,313.762 389.354,313.76 389.498,313.757 389.642,313.755 389.786,313.752 389.93,313.75 390.073,313.747 390.217,313.744 390.361,313.742 390.505,313.739 390.648,313.737 390.792,313.734 390.936,313.732 391.08,313.729 391.223,313.727 391.367,313.724 391.511,313.722 391.655,313.719 391.799,313.717 391.942,313.714 392.086,313.711 392.23,313.709 392.374,313.706 392.517,313.704 392.661,313.701 392.805,313.699 392.949,313.696 393.092,313.694 393.236,313.691 393.38,313.689 393.524,313.686 393.668,313.684 393.811,313.681 393.955,313.679 394.099,313.676 394.243,313.674 394.386,313.671 394.53,313.669 394.674,313.666 394.818,313.664 394.962,313.661 395.105,313.659 395.249,313.656 395.393,313.654 395.537,313.651 395.68,313.649 395.824,313.646 395.968,313.644 396.112,313.641 396.255,313.639 396.399,313.636 396.543,313.634 396.687,313.631 396.831,313.629 396.974,313.626 397.118,313.624 397.262,313.621 397.406,313.619 397.549,313.616 397.693,313.614 397.837,313.611 397.981,313.609 398.125,313.606 398.268,313.604 398.412,313.601 398.556,313.599 398.7,313.596 398.843,313.594 398.987,313.592 399.131,313.589 399.275,313.587 399.419,313.584 399.562,313.582 399.706,313.579 399.85,313.577 399.994,313.574 400.137,313.572 400.281,313.569 400.425,313.567 400.569,313.564 400.712,313.562 400.856,313.56 401,313.557 401.144,313.555 401.288,313.552 401.431,313.55 401.575,313.547 401.719,313.545 401.863,313.542 402.007,313.54 402.15,313.537 402.294,313.535 402.438,313.533 402.582,313.53 402.725,313.528 402.869,313.525 403.013,313.523 403.157,313.52 403.3,313.518 403.444,313.515 403.588,313.513 403.732,313.511 403.876,313.508 404.019,313.506 404.163,313.503 404.307,313.501 404.451,313.498 404.594,313.496 404.738,313.494 404.882,313.491 405.026,313.489 405.17,313.486 405.313,313.484 405.457,313.481 405.601,313.479 405.745,313.477 405.888,313.474 406.032,313.472 406.176,313.469 406.32,313.467 406.464,313.464 406.607,313.462 406.751,313.46 406.895,313.457 407.039,313.455 407.182,313.452 407.326,313.45 407.47,313.448 407.614,313.445 407.758,313.443 407.901,313.44 408.045,313.438 408.189,313.436 408.333,313.433 408.476,313.431 408.62,313.428 408.764,313.426 408.908,313.424 409.052,313.421 409.195,313.419 409.339,313.416 409.483,313.414 409.627,313.412 409.77,313.409 409.914,313.407 410.058,313.404 410.202,313.402 410.345,313.4 410.489,313.397 410.633,313.395 410.777,313.392 410.921,313.39 411.064,313.388 411.208,313.385 411.352,313.383 411.496,313.381 411.639,313.378 411.783,313.376 411.927,313.373 412.071,313.371 412.215,313.369 412.358,313.366 412.502,313.364 412.646,313.362 412.79,313.359 412.933,313.357 413.077,313.354 413.221,313.352 413.365,313.35 413.509,313.347 413.652,313.345 413.796,313.343 413.94,313.34 414.084,313.338 414.227,313.336 414.371,313.333 414.515,313.331 414.659,313.329 414.803,313.326 414.946,313.324 415.09,313.322 415.234,313.319 415.378,313.317 415.521,313.314 415.665,313.312 415.809,313.31 415.953,313.307 416.096,313.305 416.24,313.303 416.384,313.3 416.528,313.298 416.672,313.296 416.815,313.293 416.959,313.291 417.103,313.289 417.247,313.286 417.39,313.284 417.534,313.282 417.678,313.28 417.822,313.277 417.966,313.275 418.109,313.273 418.253,313.27 418.397,313.268 418.541,313.266 418.684,313.263 418.828,313.261 418.972,313.259 419.116,313.256 419.26,313.254 419.403,313.252 419.547,313.249 419.691,313.247 419.835,313.245 419.978,313.243 420.122,313.24 420.266,313.238 420.41,313.236 420.553,313.233 420.697,313.231 420.841,313.229 420.985,313.227 421.129,313.224 421.272,313.222 421.416,313.22 421.56,313.217 421.704,313.215 421.847,313.213 421.991,313.211 422.135,313.208 422.279,313.206 422.423,313.204 422.566,313.201 422.71,313.199 422.854,313.197 422.998,313.195 423.141,313.192 423.285,313.19 423.429,313.188 423.573,313.186 423.716,313.183 423.86,313.181 424.004,313.179 424.148,313.177 424.292,313.174 424.435,313.172 424.579,313.17 424.723,313.168 424.867,313.165 425.01,313.163 425.154,313.161 425.298,313.159 425.442,313.156 425.586,313.154 425.729,313.152 425.873,313.15 426.017,313.147 426.161,313.145 426.304,313.143 426.448,313.141 426.592,313.139 426.736,313.136 426.879,313.134 427.023,313.132 427.167,313.13 427.311,313.127 427.455,313.125 427.598,313.123 427.742,313.121 427.886,313.119 428.03,313.116 428.173,313.114 428.317,313.112 428.461,313.11 428.605,313.108 428.748,313.105 428.892,313.103 429.036,313.101 429.18,313.099 429.324,313.097 429.467,313.094 429.611,313.092 429.755,313.09 429.899,313.088 430.042,313.086 430.186,313.084 430.33,313.081 430.474,313.079 430.617,313.077 430.761,313.075 430.905,313.073 431.049,313.071 431.193,313.068 431.336,313.066 431.48,313.064 431.624,313.062 431.768,313.06 431.911,313.058 432.055,313.055 432.199,313.053 432.343,313.051 432.486,313.049 432.63,313.047 432.774,313.045 432.918,313.043 433.062,313.041 433.205,313.038 433.349,313.036 433.493,313.034 433.637,313.032 433.78,313.03 433.924,313.028 434.068,313.026 434.212,313.024 434.355,313.021 434.499,313.019 434.643,313.017 434.787,313.015 434.931,313.013 435.074,313.011 435.218,313.009 435.362,313.007 435.506,313.005 435.649,313.003 435.793,313 435.937,312.998 436.081,312.996 436.224,312.994 436.368,312.992 436.512,312.99 436.656,312.988 436.799,312.986 436.943,312.984 437.087,312.982 437.231,312.98 437.375,312.978 437.518,312.976 437.662,312.974 437.806,312.971 437.95,312.969 438.093,312.967 438.237,312.965 438.381,312.963 438.525,312.961 438.668,312.959 438.812,312.957 438.956,312.955 439.1,312.953 439.243,312.951 439.387,312.949 439.531,312.947 439.675,312.945 439.818,312.943 439.962,312.941 440.106,312.939 440.25,312.937 440.394,312.935 440.537,312.933 440.681,312.931 440.825,312.929 440.969,312.927 441.112,312.925 441.256,312.923 441.4,312.921 441.544,312.919 441.687,312.917 441.831,312.915 441.975,312.913 442.119,312.911 442.262,312.909 442.406,312.907 442.55,312.905 442.694,312.903 442.838,312.901 442.981,312.899 443.125,312.897 443.269,312.895 443.413,312.893 443.556,312.891 443.7,312.889 443.844,312.888 443.988,312.886 444.131,312.884 444.275,312.882 444.419,312.88 444.563,312.878 444.706,312.876 444.85,312.874 444.994,312.872 445.138,312.87 445.281,312.868 445.425,312.866 445.569,312.864 445.713,312.863 445.856,312.861 446,312.859 446.144,312.857 446.288,312.855 446.431,312.853 446.575,312.851 446.719,312.849 446.863,312.847 447.007,312.845 447.15,312.844 447.294,312.842 447.438,312.84 447.582,312.838 447.725,312.836 447.869,312.834 448.013,312.832 448.157,312.831 448.3,312.829 448.444,312.827 448.588,312.825 448.732,312.823 448.875,312.821 449.019,312.819 449.163,312.818 449.307,312.816 449.45,312.814 449.594,312.812 449.738,312.81 449.882,312.809 450.025,312.807 450.169,312.805 450.313,312.803 450.457,312.801 450.6,312.799 450.744,312.798 450.888,312.796 451.032,312.794 451.175,312.792 451.319,312.79 451.463,312.789 451.607,312.787 451.75,312.785 451.894,312.783 452.038,312.782 452.182,312.78 452.325,312.778 452.469,312.776 452.613,312.775 452.757,312.773 452.9,312.771 453.044,312.769 453.188,312.768 453.332,312.766 453.475,312.764 453.619,312.762 453.763,312.761 453.907,312.759 454.051,312.757 454.194,312.755 454.338,312.754 454.482,312.752 454.625,312.75 454.769,312.749 454.913,312.747 455.057,312.745 455.2,312.743 455.344,312.742 455.488,312.74 455.632,312.738 455.775,312.737 455.919,312.735 456.063,312.733 456.207,312.732 456.351,312.73 456.494,312.728 456.638,312.727 456.782,312.725 456.926,312.723 457.069,312.722 457.213,312.72 457.357,312.718 457.501,312.717 457.644,312.715 457.788,312.713 457.932,312.712 458.076,312.71 458.219,312.709 458.363,312.707 458.507,312.705 458.651,312.704 458.794,312.702 458.938,312.7 459.082,312.699 459.225,312.697 459.369,312.696 459.513,312.694 459.657,312.692 459.8,312.691 459.944,312.689 460.088,312.688 460.232,312.686 460.375,312.685 460.519,312.683 460.663,312.681 460.807,312.68 460.95,312.678 461.094,312.677 461.238,312.675 461.382,312.674 461.525,312.672 461.669,312.671 461.813,312.669 461.957,312.667 462.1,312.666 462.244,312.664 462.388,312.663 462.532,312.661 462.675,312.66 462.819,312.658 462.963,312.657 463.107,312.655 463.25,312.654 463.394,312.652 463.538,312.651 463.682,312.649 463.825,312.648 463.969,312.646 464.113,312.645 464.257,312.643 464.4,312.642 464.544,312.64 464.688,312.639 464.832,312.637 464.975,312.636 465.119,312.635 465.263,312.633 465.407,312.632 465.55,312.63 465.694,312.629 465.838,312.627 465.982,312.626 466.125,312.624 466.269,312.623 466.413,312.622 466.557,312.62 466.7,312.619 466.844,312.617 466.988,312.616 467.132,312.615 467.275,312.613 467.419,312.612 467.563,312.61 467.707,312.609 467.85,312.608 467.994,312.606 468.138,312.605 468.282,312.603 468.425,312.602 468.569,312.601 468.713,312.599 468.857,312.598 469,312.597 469.144,312.595 469.288,312.594 469.432,312.593 469.575,312.591 469.719,312.59 469.863,312.589 470.007,312.587 470.15,312.586 470.294,312.585 470.438,312.583 470.581,312.582 470.725,312.581 470.869,312.579 471.013,312.578 471.156,312.577 471.3,312.575 471.444,312.574 471.588,312.573 471.731,312.571 471.875,312.57 472.019,312.569 472.163,312.568 472.306,312.566 472.45,312.565 472.594,312.564 472.738,312.563 472.881,312.561 473.025,312.56 473.169,312.559 473.313,312.558 473.456,312.556 473.6,312.555 473.744,312.554 473.888,312.553 474.031,312.551 474.175,312.55 474.319,312.549 474.463,312.548 474.606,312.547 474.75,312.545 474.894,312.544 475.038,312.543 475.181,312.542 475.325,312.54 475.469,312.539 475.613,312.538 475.756,312.537 475.9,312.536 476.044,312.535 476.188,312.533 476.331,312.532 476.475,312.531 476.619,312.53 476.763,312.529 476.906,312.528 477.05,312.526 477.194,312.525 477.338,312.524 477.481,312.523 477.625,312.522 477.769,312.521 477.913,312.52 478.056,312.519 478.2,312.517 478.344,312.516 478.488,312.515 478.631,312.514 478.775,312.513 478.919,312.512 479.063,312.511 479.206,312.51 479.35,312.509 479.494,312.508 479.638,312.506 479.781,312.505 479.925,312.504 480.069,312.503 480.212,312.502 480.356,312.501 480.5,312.5 " />
</g>

<g fill="#bfbfbf" fill-opacity="0.25098" stroke="none" transform="matrix(7.5e-05,0,0,7.5e-05,-57.5,-26.9325)"
font-family="Helvetica" font-size="14" font-weight="700" font-style="normal" 
>
<path vector-effect="none" fill-rule="evenodd" d="M4.80632e+06,3.30475e+06 L6.24428e+06,3.29419e+06 L6.24164e+06,2.9347e+06 L4.80368e+06,2.94525e+06 L4.80632e+06,3.30475e+06"/>
</g>

<g fill="none" stroke="#f2f2f2" stroke-opacity="1" stroke-width="1.86667" stroke-linecap="square" stroke-linejoin="miter" stroke-miterlimit="5" transform="matrix(0.75,0,0,0.75,-57.5,-26.9325)"
font-family="Helvetica" font-size="14" font-weight="700" font-style="normal" 
>
<polyline fill="none" vector-effect="none" points="624.164,293.47 624.428,329.419 480.632,330.475 480.368,294.525 624.164,293.47 " />
</g>

<g fill="#33ccff" fill-opacity="0.25098" stroke="none" transform="matrix(7.5e-05,0,0,7.5e-05,-57.5,-26.9325)"
font-family="Helvetica" font-size="14" font-weight="700" font-style="normal" 
>
<path vector-effect="none" fill-rule="evenodd" d="M6.2022e+06,3.29349e+06 L6.67105e+06,3.30193e+06 L6.67753e+06,2.94249e+06 L6.20867e+06,2.93405e+06 L6.2022e+06,3.29349e+06"/>
</g>

<g fill="none" stroke="#b3f2ff" stroke-opacity="1" stroke-width="1.86667" stroke-linecap="square" stroke-linejoin="miter" stroke-miterlimit="5" transform="matrix(0.75,0,0,0.75,-57.5,-26.9325)"
font-family="Helvetica" font-size="14" font-weight="700" font-style="normal" 
>
<polyline fill="none" vector-effect="none" points="667.753,294.249 667.105,330.193 620.22,329.349 620.867,293.405 667.753,294.249 " />
</g>

<g fill="#121212" fill-opacity="1" stroke="none" transform="matrix(7.5e-05,0,0,7.5e-05,-57.5,-26.9325)"
font-family="Helvetica" font-size="14" font-weight="700" font-style="normal" 
>
<path vector-effect="none" fill-rule="evenodd" d="M8.51e+06,540000 L8.51e+06,1.15e+06 L9.86e+06,1.15e+06 L9.86e+06,540000 L8.51e+06,540000"/>
</g>

<g fill="#a6a6a6" fill-opacity="1" stroke="#a6a6a6" stroke-opacity="1" stroke-dasharray="10,6" stroke-dashoffset="0" stroke-width="1.86667" stroke-linecap="butt" stroke-linejoin="round" transform="matrix(0.75,0,0,0.75,-57.5,-26.9325)"
font-family="Helvetica" font-size="14" font-weight="700" font-style="normal" 
>
<polyline fill="none" vector-effect="none" points="855,62.9268 895,62.9268 " />
</g>

<g fill="#33ccff" fill-opacity="1" stroke="#33ccff" stroke-opacity="1" stroke-width="2.66667" stroke-linecap="butt" stroke-linejoin="round" transform="matrix(0.75,0,0,0.75,-57.5,-26.9325)"
font-family="Helvetica" font-size="14" font-weight="700" font-style="normal" 
>
<polyline fill="none" vector-effect="none" points="855,77.3089 895,77.3089 " />
</g>

<g fill="#bfbfbf" fill-opacity="0.25098" stroke="none" transform="matrix(7.5e-05,0,0,7.5e-05,-57.5,-26.9325)"
font-family="Helvetica" font-size="14" font-weight="700" font-style="normal" 
>
<path vector-effect="none" fill-rule="evenodd" d="M8.55e+06,864837 L8.55e+06,968983 L8.95e+06,968983 L8.95e+06,864837 L8.55e+06,864837"/>
</g>

<g fill="none" stroke="#f2f2f2" stroke-opacity="1" stroke-width="1.86667" stroke-linecap="butt" stroke-linejoin="miter" stroke-miterlimit="5" transform="matrix(0.75,0,0,0.75,-57.5,-26.9325)"
font-family="Helvetica" font-size="14" font-weight="700" font-style="normal" 
>
<path vector-effect="none" fill-rule="evenodd" d="M855,96.8984 L855,86.4837 L895,86.4837 L895,96.8984 L855,96.8984"/>
</g>

<g fill="#33ccff" fill-opacity="0.25098" stroke="none" transform="matrix(7.5e-05,0,0,7.5e-05,-57.5,-26.9325)"
font-family="Helvetica" font-size="14" font-weight="700" font-style="normal" 
>
<path vector-effect="none" fill-rule="evenodd" d="M8.55e+06,1.00866e+06 L8.55e+06,1.1128e+06 L8.95e+06,1.1128e+06 L8.95e+06,1.00866e+06 L8.55e+06,1.00866e+06"/>
</g>

<g fill="none" stroke="#b3f2ff" stroke-opacity="1" stroke-width="1.86667" stroke-linecap="butt" stroke-linejoin="miter" stroke-miterlimit="5" transform="matrix(0.75,0,0,0.75,-57.5,-26.9325)"
font-family="Helvetica" font-size="14" font-weight="700" font-style="normal" 
>
<path vector-effect="none" fill-rule="evenodd" d="M855,111.28 L855,100.866 L895,100.866 L895,111.28 L855,111.28"/>
</g>

<g fill="#ffffff" fill-opacity="1" stroke="#ffffff" stroke-opacity="1" stroke-width="1" stroke-linecap="square" stroke-linejoin="bevel" transform="matrix(0.75,0,0,0.75,616,23.2626)"
font-family="Helvetica" font-size="12" font-weight="400" font-style="normal" 
>
<text fill="#ffffff" fill-opacity="1" stroke="none" xml:space="preserve" x="0" y="0" font-family="Helvetica" font-size="12" font-weight="400" font-style="normal" 
 >Reference Path</text>
</g>

<g fill="#ffffff" fill-opacity="1" stroke="#ffffff" stroke-opacity="1" stroke-width="1" stroke-linecap="square" stroke-linejoin="bevel" transform="matrix(0.75,0,0,0.75,616,34.0492)"
font-family="Helvetica" font-size="12" font-weight="400" font-style="normal" 
>
<text fill="#ffffff" fill-opacity="1" stroke="none" xml:space="preserve" x="0" y="0" font-family="Helvetica" font-size="12" font-weight="400" font-style="normal" 
 >Trailer Path</text>
</g>

<g fill="#ffffff" fill-opacity="1" stroke="#ffffff" stroke-opacity="1" stroke-width="1" stroke-linecap="square" stroke-linejoin="bevel" transform="matrix(0.75,0,0,0.75,616,44.8358)"
font-family="Helvetica" font-size="12" font-weight="400" font-style="normal" 
>
<text fill="#ffffff" fill-opacity="1" stroke="none" xml:space="preserve" x="0" y="0" font-family="Helvetica" font-size="12" font-weight="400" font-style="normal" 
 >Trailer Body</text>
</g>

<g fill="#ffffff" fill-opacity="1" stroke="#ffffff" stroke-opacity="1" stroke-width="1" stroke-linecap="square" stroke-linejoin="bevel" transform="matrix(0.75,0,0,0.75,616,55.6224)"
font-family="Helvetica" font-size="12" font-weight="400" font-style="normal" 
>
<text fill="#ffffff" fill-opacity="1" stroke="none" xml:space="preserve" x="0" y="0" font-family="Helvetica" font-size="12" font-weight="400" font-style="normal" 
 >Tractor Body</text>
</g>

<g fill="none" stroke="#d9d9d9" stroke-opacity="1" stroke-width="0.666667" stroke-linecap="butt" stroke-linejoin="miter" stroke-miterlimit="5" transform="matrix(0.75,0,0,0.75,-57.5,-26.9325)"
font-family="Helvetica" font-size="12" font-weight="400" font-style="normal" 
>
<path vector-effect="none" fill-rule="evenodd" d="M851,115 L851,54 L986,54 L986,115 L851,115"/>
</g>
</g>
</svg>
