<svg overflow="hidden" xmlns:xlink="http://www.w3.org/1999/xlink" xmlns="http://www.w3.org/2000/svg" viewBox="234.69066366704163 56.16 914.2857142857143 532.8" style="max-height: 500px" width="914.2857142857143" height="532.8"><g><rect fill="#FFFFFF" height="720" width="1280" y="0" x="0"/><path fill-rule="evenodd" fill="#747474" d="M949.943 135.47 971.559 194.858 948.255 203.34 926.639 143.952Z"/><path fill-rule="evenodd" fill="#747474" d="M719.098 475.539 755.348 423.768 775.663 437.993 739.413 489.764Z"/><path fill-rule="evenodd" fill="#747474" d="M314.692 480.701 375.739 464.343 382.158 488.298 321.111 504.655Z"/><path fill-rule="evenodd" fill="none" stroke-miterlimit="8" stroke-width="4" stroke="#000000" d="M345.652 485.986 815.837 360"/><path transform="matrix(1 0 0 -1 326.5 401.999)" fill="#E97132" d="M7.63145 0.491914 457.783 121.11 457.007 124.007 6.85499 3.38969ZM7.52866 6.67603 0 0 9.85802-2.01731ZM457.11 117.823 464.638 124.499 454.78 126.517Z"/><path fill-rule="evenodd" fill="none" stroke-dasharray="12 9" stroke-miterlimit="8" stroke-width="3" stroke="#000000" d="M323.5 395.5 347.881 486.491"/><path fill-rule="evenodd" fill="none" stroke-dasharray="9 3" stroke-miterlimit="8" stroke-linecap="square" stroke-width="3" stroke="#000000" d="M347.5 486.5 510.054 486.5"/><path fill-rule="evenodd" fill="none" stroke-dasharray="12 9" stroke-miterlimit="8" stroke-width="3" stroke="#000000" d="M792.5 273.5 815.845 360.626"/><path fill="#156082" d="M494.83 456.147 497.728 460.997 499.445 465.077 500.712 469.236 501.532 473.505 501.719 481.782 498.719 481.85 498.535 473.698 498.562 473.947 497.781 469.88 497.819 470.034 496.598 466.025 496.651 466.17 495.004 462.258 495.099 462.446 492.255 457.686ZM490.848 460.821 489.034 450.923 498.04 455.41Z"/><text transform="translate(516.181 473)" font-size="24" font-weight="400" font-family="Cambria Math,Cambria Math_MSFontService,sans-serif">𝜓</text><text transform="translate(533.014 477)" font-size="17.52" font-weight="400" font-family="Cambria Math,Cambria Math_MSFontService,sans-serif">2</text><text transform="translate(539.781 326)" font-size="24" font-weight="400" font-family="Cambria Math,Cambria Math_MSFontService,sans-serif">𝐿</text><text transform="translate(552.615 331)" font-size="17.52" font-weight="400" font-family="Cambria Math,Cambria Math_MSFontService,sans-serif">2</text><text transform="translate(343.895 527)" font-size="24" font-weight="400" font-family="Cambria Math,Cambria Math_MSFontService,sans-serif">(</text><text transform="translate(353.895 527)" font-size="24" font-weight="400" font-family="Cambria Math,Cambria Math_MSFontService,sans-serif">𝑋</text><text transform="translate(368.342 532)" font-size="17.52" font-weight="400" font-family="Cambria Math,Cambria Math_MSFontService,sans-serif">2</text><text transform="translate(379.502 527)" font-size="24" font-weight="400" font-family="Cambria Math,Cambria Math_MSFontService,sans-serif">,</text><text transform="translate(388.502 527)" font-size="24" font-weight="400" font-family="Cambria Math,Cambria Math_MSFontService,sans-serif">𝑌</text><text transform="translate(399.062 532)" font-size="17.52" font-weight="400" font-family="Cambria Math,Cambria Math_MSFontService,sans-serif">2</text><text transform="translate(410.222 527)" font-size="24" font-weight="400" font-family="Cambria Math,Cambria Math_MSFontService,sans-serif">)</text><path fill-rule="evenodd" fill="none" stroke-dasharray="9 3" stroke-miterlimit="8" stroke-linecap="square" stroke-width="3" stroke="#000000" d="M747.5 459.5 842.445 459.5"/><path transform="matrix(1 0 0 -1 746 459.366)" fill-rule="evenodd" fill="none" stroke-miterlimit="8" stroke-width="4" stroke="#000000" d="M0 0 203.316 290.366"/><path fill="#156082" d="M798.357 408.177 805.538 412.738 811.146 418.415 815.513 424.97 818.548 432.216 820.133 439.912 820.355 443.933 820.172 447.962 819.572 452.008 818.563 455.97 815.656 455.229 816.646 451.342 816.616 451.492 817.193 447.598 817.178 447.749 817.354 443.872 817.355 444.023 817.143 440.188 817.172 440.408 815.639 432.963 815.725 433.24 812.802 426.261 812.937 426.514 808.729 420.198 808.91 420.421 803.523 414.967 803.786 415.179 796.748 410.71ZM797.084 414.164 790.706 406.381 800.759 405.948Z"/><text transform="translate(828.05 432)" font-size="24" font-weight="400" font-family="Cambria Math,Cambria Math_MSFontService,sans-serif">𝜓</text><text transform="translate(844.33 437)" font-size="17.52" font-weight="400" font-family="Cambria Math,Cambria Math_MSFontService,sans-serif">1</text><path fill-rule="evenodd" fill="none" stroke-dasharray="12 9" stroke-miterlimit="8" stroke-width="3" stroke="#000000" d="M873.417 547.668 747.5 459.5"/><path fill-rule="evenodd" fill="none" stroke-dasharray="12 9" stroke-miterlimit="8" stroke-width="3" stroke="#000000" d="M1072.84 255.861 949.5 169.5"/><path transform="matrix(1 0 0 -1 815.5 360.183)" fill-rule="evenodd" fill="none" stroke-dasharray="9 3" stroke-miterlimit="8" stroke-linecap="square" stroke-width="3" stroke="#000000" d="M0 0 92.1186 24.6831"/><text transform="translate(897.079 315)" font-size="24" font-weight="400" font-family="Cambria Math,Cambria Math_MSFontService,sans-serif">𝛾</text><path fill="#156082" d="M866.743 305.897 869.919 307.505 874.423 310.854 878.398 314.733 881.814 319.101 884.618 323.899 886.758 329.07 888.154 334.452 885.25 335.205 883.88 329.924 883.946 330.121 881.885 325.141 881.976 325.324 879.275 320.702 879.388 320.869 876.096 316.66 876.23 316.809 872.399 313.071 872.552 313.201 868.232 309.989 868.45 310.123 865.388 308.574ZM865.592 311.955 859.222 304.166 869.276 303.744Z"/><path fill-rule="evenodd" fill="none" stroke-dasharray="12 9" stroke-miterlimit="8" stroke-width="3" stroke="#000000" d="M915.719 427.674 815.5 357.5"/><path transform="matrix(1 0 0 -1 863.5 537.911)" fill="#E97132" d="M5.53046 5.28314 197.475 279.409 195.018 281.129 3.073 7.00387ZM1.476 9.95346 0 0 8.84837 4.79127ZM199.071 276.458 200.547 286.411 191.699 281.62Z"/><path fill-rule="evenodd" d="M945 169.5C945 167.015 946.791 165 949 165 951.209 165 953 167.015 953 169.5 953 171.985 951.209 174 949 174 946.791 174 945 171.985 945 169.5Z"/><path transform="matrix(1 0 0 -1 950.5 168.886)" fill-rule="evenodd" fill="none" stroke-dasharray="9 3" stroke-miterlimit="8" stroke-linecap="square" stroke-width="3" stroke="#000000" d="M0 0 39.4819 56.3859"/><path transform="matrix(0.573576 -0.819152 -0.819152 -0.573576 948.228 169.364)" fill-rule="evenodd" fill="none" stroke-dasharray="9 3" stroke-miterlimit="8" stroke-linecap="square" stroke-width="3" stroke="#000000" d="M0 0 39.4819 56.3859"/><text transform="translate(969.169 414)" font-size="24" font-weight="400" font-family="Cambria Math,Cambria Math_MSFontService,sans-serif">𝐿</text><text transform="translate(981.449 419)" font-size="17.52" font-weight="400" font-family="Cambria Math,Cambria Math_MSFontService,sans-serif">1</text><path transform="matrix(1 0 0 -1 874.5 453.506)" fill="#E97132" d="M1.22873-0.860365 20.0379 26.0019 17.5804 27.7226-1.22873 0.860365ZM21.635 23.0524 23.111 33.0059 14.2626 28.2146Z"/><path transform="matrix(-1 0 0 1 854.076 482.5)" fill="#E97132" d="M1.22873-0.860361 20.5028 26.666 18.0453 28.3867-1.22873 0.860361ZM22.0999 23.7166 23.5759 33.67 14.7275 28.8787Z"/><text transform="translate(854.074 472)" font-size="24" font-weight="400" font-family="Cambria Math,Cambria Math_MSFontService,sans-serif">𝐿</text><text transform="translate(866.354 477)" font-size="17.52" font-weight="400" font-family="Cambria Math,Cambria Math_MSFontService,sans-serif">1𝑐</text><path fill="#156082" d="M937.344 108.228 943.361 106.591 950.253 106.128 957.049 106.798 963.628 108.573 969.843 111.427 975.547 115.334 980.497 120.173 978.399 122.318 973.543 117.57 973.744 117.735 968.253 113.974 968.475 114.1 962.49 111.352 962.725 111.437 956.388 109.727 956.631 109.772 950.082 109.126 950.33 109.13 943.711 109.574 944.004 109.525 938.132 111.123ZM940.739 113.349 930.727 112.34 937.542 104.936Z"/><text transform="translate(959.834 102)" font-size="24" font-weight="400" font-family="Cambria Math,Cambria Math_MSFontService,sans-serif">𝛿</text><text transform="translate(691.853 513)" font-size="24" font-weight="400" font-family="Cambria Math,Cambria Math_MSFontService,sans-serif">(</text><text transform="translate(701.853 513)" font-size="24" font-weight="400" font-family="Cambria Math,Cambria Math_MSFontService,sans-serif">𝑋</text><text transform="translate(715.746 518)" font-size="17.52" font-weight="400" font-family="Cambria Math,Cambria Math_MSFontService,sans-serif">1</text><text transform="translate(726.906 513)" font-size="24" font-weight="400" font-family="Cambria Math,Cambria Math_MSFontService,sans-serif">,</text><text transform="translate(735.906 513)" font-size="24" font-weight="400" font-family="Cambria Math,Cambria Math_MSFontService,sans-serif">𝑌</text><text transform="translate(745.913 518)" font-size="17.52" font-weight="400" font-family="Cambria Math,Cambria Math_MSFontService,sans-serif">1</text><text transform="translate(757.073 513)" font-size="24" font-weight="400" font-family="Cambria Math,Cambria Math_MSFontService,sans-serif">)</text><path transform="matrix(1 0 0 -1 744 461.134)" fill="#3B7D23" d="M1.6383-1.14715 33.8074 44.7951 30.5308 47.0894-1.6383 1.14715ZM35.9369 40.8625 37.9049 54.1338 26.107 47.7454Z"/><path fill-rule="evenodd" d="M743 459.5C743 457.015 744.791 455 747 455 749.209 455 751 457.015 751 459.5 751 461.985 749.209 464 747 464 744.791 464 743 461.985 743 459.5Z"/><text transform="translate(724.587 422)" font-size="24" font-weight="400" font-family="Cambria Math,Cambria Math_MSFontService,sans-serif">𝑢</text><text transform="translate(737.867 427)" font-size="17.52" font-weight="400" font-family="Cambria Math,Cambria Math_MSFontService,sans-serif">1</text><path transform="matrix(1 0 0 -1 348 486.014)" fill="#3B7D23" d="M0.517636-1.93185 50.6239 11.494 49.5886 15.3577-0.517636 1.93185ZM49.7274 7.1127 59.7656 16.0141 46.6215 18.7038Z"/><path fill-rule="evenodd" d="M343 485.5C343 483.015 345.015 481 347.5 481 349.985 481 352 483.015 352 485.5 352 487.985 349.985 490 347.5 490 345.015 490 343 487.985 343 485.5Z"/><text transform="translate(363.467 456)" font-size="24" font-weight="400" font-family="Cambria Math,Cambria Math_MSFontService,sans-serif">𝑢</text><text transform="translate(377.301 461)" font-size="17.52" font-weight="400" font-family="Cambria Math,Cambria Math_MSFontService,sans-serif">2</text><path d="M402 159 402 250.788 399 250.788 399 159ZM396 160.5 400.5 151.5 405 160.5Z"/><path d="M492.902 251 400.5 251 400.5 248 492.902 248ZM491.402 245 500.402 249.5 491.402 254Z"/><text transform="translate(411.182 162)" font-size="24" font-weight="400" font-family="Cambria Math,Cambria Math_MSFontService,sans-serif">𝑌</text><text transform="translate(474.267 239)" font-size="24" font-weight="400" font-family="Cambria Math,Cambria Math_MSFontService,sans-serif">𝑋</text></g></svg>